<svg role="img" focusable="false" aria-hidden="true" xmlns="http://www.w3.org/2000/svg" viewBox="0 0 14 14"><path d="m 1.000125,1 0,12 11.99975,0 0,-12 -11.99975,0 z m 6.59525,8.49475 -3.39975,0 0,-5.7285 1.0455,0 0,4.853 2.35425,0 0,0.8755 z m 2.9155,-3.22125 c -0.085,-0.017 -0.17875,-0.034 -0.30625,-0.034 -0.5015,0 -0.84125,0.323 -0.9345,0.79025 -0.017,0.0935 -0.03425,0.204 -0.03425,0.323 l 0,2.14175 -1.0455,0 0,-2.8045 c 0,-0.561 -0.00825,-0.9605 -0.03425,-1.33425 l 0.90975,0 0.03425,0.7905 0.03375,0 c 0.204,-0.5865 0.6885,-0.884 1.13025,-0.884 0.102,0 0.1615,0.0085 0.2465,0.0255 l 0,0.98575 z" fill="#B5C9EC"/></svg>