<svg class="svg-icon" style="width: 1em; height: 1em;vertical-align: middle;fill: currentColor;overflow: hidden;" viewBox="0 0 1024 1024" version="1.1" xmlns="http://www.w3.org/2000/svg"><path d="M170.666667 874.666667V149.333333c0-46.933333 38.4-85.333333 85.333333-85.333333h512c46.933333 0 85.333333 38.4 85.333333 85.333333v725.333334c0 46.933333-38.4 85.333333-85.333333 85.333333H256c-46.933333 0-85.333333-38.4-85.333333-85.333333z" fill="#37474F" /><path d="M746.666667 128H277.333333c-12.8 0-21.333333 8.533333-21.333333 21.333333v618.666667c0 12.8 8.533333 21.333333 21.333333 21.333333h469.333334c12.8 0 21.333333-8.533333 21.333333-21.333333V149.333333c0-12.8-8.533333-21.333333-21.333333-21.333333z" fill="#EEEEEE" /><path d="M426.666667 853.333333h170.666666v42.666667h-170.666666z" fill="#546E7A" /><path d="M341.333333 234.666667h341.333334v64H341.333333zM341.333333 384h341.333334v42.666667H341.333333zM341.333333 469.333333h256v42.666667H341.333333zM341.333333 554.666667h341.333334v42.666666H341.333333zM341.333333 640h256v42.666667H341.333333z" fill="#A1A1A1" /></svg>