<svg xmlns="http://www.w3.org/2000/svg" aria-hidden="true" viewBox="0 0 14 14">
  <path fill="#00CDF7" d="M1 1v12h12V1H1zm5.8475 6.1225c-.3742.3745-.9625.55-1.627.55-.1755 0-.336-.0078-.4583-.0305v1.94h-.9317V4.503c.336-.0612.802-.107 1.436-.107.6875 0 1.1915.1453 1.52.42.3055.252.504.6568.504 1.138-.0003.4888-.1527.8935-.443 1.1685zm1.8097 2.5358c-.4502 0-.855-.1068-1.1302-.2596l.183-.68c.2138.1303.6187.2673.9547.2673.4125 0 .5955-.1683.5955-.4123 0-.252-.1525-.3817-.6105-.5422C7.924 7.7793 7.6183 7.382 7.626 6.947c0-.6567.5425-1.1687 1.4053-1.1687.4127 0 .7715.107.9852.2215l-.1833.6645c-.1602-.0915-.4582-.2138-.7865-.2138-.3362 0-.5192.1605-.5192.3898 0 .2367.1757.3512.6495.5192.672.2445.985.588.9928 1.1383 0 .6717-.527 1.1605-1.5125 1.1605zM5.3045 5.114c-.2597 0-.443.023-.5423.0457v1.7415c.1146.0305.2673.0383.4583.0383.7027 0 1.1302-.3438 1.1302-.9472 0-.5728-.397-.8783-1.0462-.8783z"/>
</svg>
