<svg xmlns="http://www.w3.org/2000/svg" viewBox="0 0 24 24">
  <path fill="#03a9f4" stroke-width=".9952" d="M21.783 4.0386c.4876 0 .7961.398.6668.8857l-3.1447 14.151c-.1095.4876-.5872.8857-1.0748.8857H2.2183c-.4877 0-.7962-.398-.6668-.8857l3.1447-14.151c.1095-.4876.5872-.8857 1.0748-.8857h16.012m-5.971 11.942h-3.9807c-.4578 0-.826.3782-.826.836 0 .4677.3682.8458.826.8458h3.9807a.8452.8452 0 00.8459-.8459c0-.4577-.3782-.8359-.8459-.8359m-10.001.2786c-.398.2787-.4876.826-.209 1.2141.2787.418.836.4976 1.234.229 7.3145-5.145 7.3643-5.2048 7.414-5.2347.1791-.1592.2687-.3781.2787-.597.01-.1991-.0398-.3683-.1593-.5574L9.4732 6.0587c-.3284-.3582-.8857-.3781-1.244-.0298-.3582.3184-.3781.8757-.0497 1.234l4.13 4.4186z"/>
</svg>
