<svg xmlns="http://www.w3.org/2000/svg" viewBox="0 0 24 24"><defs><style>.cls-1{fill:none;}.cls-2{fill:#ed6c47;}.cls-3{fill:#ff8f6b;}.cls-4{fill:#d35230;}.cls-5{opacity:0.5;}.cls-6{opacity:0.1;}.cls-7{fill:#c43e1c;}.cls-8{fill:#fff;}</style></defs><title>Powerpoint_24x</title><g id="Powerpoint"><rect class="cls-1" width="24" height="24"/><path class="cls-2" d="M13,1A11,11,0,0,0,2,12l14.84,3.84Z"/><path class="cls-3" d="M13,1A11,11,0,0,1,24,12L18.5,15,13,12Z"/><path class="cls-4" d="M2,12a11,11,0,0,0,22,0Z"/><path class="cls-5" d="M15,18.65V7.17A1.18,1.18,0,0,0,13.83,6H3.8A10.91,10.91,0,0,0,5.49,20H13.6A1.5,1.5,0,0,0,15,18.65Z"/><path class="cls-6" d="M15,18.65V7.17A1.18,1.18,0,0,0,13.83,6H3.8A10.91,10.91,0,0,0,5.49,20H13.6A1.5,1.5,0,0,0,15,18.65Z"/><rect id="Back_Plate" data-name="Back Plate" class="cls-7" y="5" width="14" height="14" rx="1.17"/><path class="cls-8" d="M7.4,8a3.32,3.32,0,0,1,2.2.64,2.32,2.32,0,0,1,.76,1.86A3.42,3.42,0,0,1,10,12.11a2.54,2.54,0,0,1-1.07,1,3.7,3.7,0,0,1-1.61.34H5.78V16H4.22V8ZM5.78,12H7.12a1.78,1.78,0,0,0,1.19-.35,1.46,1.46,0,0,0,.4-1.1c0-.88-.51-1.32-1.54-1.32H5.78Z"/></g></svg>