<?xml version="1.0" encoding="iso-8859-1"?>
<!-- Generator: Adobe Illustrator 19.0.0, SVG Export Plug-In . SVG Version: 6.00 Build 0)  -->
<svg version="1.1" id="Layer_1" xmlns="http://www.w3.org/2000/svg" xmlns:xlink="http://www.w3.org/1999/xlink" x="0px" y="0px"
	 viewBox="0 0 512 512" style="enable-background:new 0 0 512 512;" xml:space="preserve">
<g>
	<path style="fill:#73A1FB;" d="M235.015,43.268v195.943c0,2.318,1.878,4.197,4.197,4.197h268.525c2.318,0,4.197-1.878,4.197-4.197
		V4.197c0-1.219-0.529-2.377-1.45-3.174c-0.92-0.797-2.14-1.153-3.351-0.979L238.607,39.115
		C236.544,39.416,235.015,41.185,235.015,43.268z"/>
	<path style="fill:#73A1FB;" d="M205.641,469.945c1.009,0,1.991-0.363,2.76-1.034c0.913-0.797,1.437-1.951,1.437-3.163V272.787
		c0-2.318-1.878-4.197-4.197-4.197H4.351c-1.113,0-2.181,0.443-2.968,1.229c-0.787,0.787-1.229,1.855-1.229,2.968l0.01,165.376
		c0,2.097,1.549,3.874,3.626,4.16l201.28,27.588C205.26,469.932,205.451,469.945,205.641,469.945z"/>
	<path style="fill:#73A1FB;" d="M4.38,243.408h201.261c2.318,0,4.197-1.878,4.197-4.197V48.146c0-1.212-0.524-2.364-1.435-3.161
		c-0.912-0.797-2.117-1.163-3.325-0.997L3.633,71.344C1.549,71.628-0.002,73.406,0,75.507l0.183,163.707
		C0.186,241.531,2.065,243.408,4.38,243.408z"/>
	<path style="fill:#73A1FB;" d="M507.736,512c1.006,0,1.984-0.361,2.753-1.029c0.917-0.797,1.444-1.951,1.444-3.168L512,272.787
		c0-1.111-0.441-2.181-1.229-2.968c-0.787-0.787-1.855-1.229-2.968-1.229H239.211c-2.318,0-4.197,1.878-4.197,4.197v197.239
		c0,2.092,1.541,3.864,3.611,4.156L507.15,511.96C507.347,511.987,507.541,512,507.736,512z"/>
</g>
<g>
</g>
<g>
</g>
<g>
</g>
<g>
</g>
<g>
</g>
<g>
</g>
<g>
</g>
<g>
</g>
<g>
</g>
<g>
</g>
<g>
</g>
<g>
</g>
<g>
</g>
<g>
</g>
<g>
</g>
</svg>
