<svg t="1609092528376" class="icon" viewBox="0 0 1024 1024" version="1.1" xmlns="http://www.w3.org/2000/svg" p-id="8950" width="200" height="200">
<path d="M695.296 346.112c11.776 0 23.552 1.024 34.816 2.048-31.232-146.432-187.904-254.976-366.592-254.976-199.68 0-363.52 136.192-363.52 308.736 0 99.84 54.272 181.76 145.408 245.248l-36.352 109.056L236.032 692.736c45.568 9.216 81.92 18.432 127.488 18.432 11.264 0 22.528-0.512 33.792-1.536-7.168-24.064-11.264-49.664-11.264-76.288 0.512-158.208 136.704-287.232 309.248-287.232zM497.664 240.64c31.232 0 56.32 25.088 56.32 56.32s-25.088 56.32-56.32 56.32-56.32-25.088-56.32-56.32 25.088-56.32 56.32-56.32zM243.2 353.792c-31.232 0-56.32-25.088-56.32-56.32s25.088-56.32 56.32-56.32 56.32 25.088 56.32 56.32-25.088 56.32-56.32 56.32zM1024.512 630.784c0-145.408-145.408-263.68-308.736-263.68-173.056 0-309.248 118.272-309.248 263.68s136.192 263.68 309.248 263.68c36.352 0 72.704-9.216 109.056-18.432l99.84 54.784-27.136-90.624c72.704-54.784 126.976-127.488 126.976-209.408z m-403.456-40.96c-22.016 0-39.936-17.92-39.936-39.936s17.92-39.936 39.936-39.936 39.936 17.92 39.936 39.936-17.92 39.936-39.936 39.936z m199.68 2.56c-22.016 0-39.936-17.92-39.936-39.936s17.92-39.936 39.936-39.936 39.936 17.92 39.936 39.936-17.92 39.936-39.936 39.936z" fill="#69BB64" p-id="8951"></path>
</svg>