<svg xmlns="http://www.w3.org/2000/svg" viewBox="0 0 14 14">
  <path fill="#EF4642" d="M12.8169 8.6991c-.3556-.3806-1.0837-.5994-2.1153-.5994-.5508 0-1.1893.055-1.8829.1853-.3916-.3856-.7822-.8363-1.1553-1.3621-.2654-.3706-.4973-.7612-.711-1.1468.407-1.272.6038-2.3085.6038-3.0547 0-.8373-.302-1.7106-1.1718-1.7106-.2669 0-.5338.1627-.676.4006-.3921.705-.2153 2.25.4592 3.7758a35.5249 35.5249 0 01-.8513 2.306 27.8264 27.8264 0 01-.963 2.0512c-1.955.7932-3.22 1.7197-3.3386 2.4458-.0521.274.037.5258.2288.7261.0666.0551.3185.273.7412.273 1.297 0 2.664-2.1434 3.3586-3.4354.5334-.1802 1.0667-.344 1.599-.5082.5849-.1618 1.1718-.292 1.7051-.3831 1.3696 1.2539 2.577 1.4522 3.184 1.4522.747 0 1.0135-.309 1.1031-.5619.1403-.3255.035-.686-.1262-.8713l.01.02zm-.6936.5278c-.052.2725-.3195.4537-.694.4537-.1052 0-.1954-.0185-.302-.036-.681-.1628-1.3186-.5088-1.9546-1.0547a8.874 8.874 0 011.4923-.1251c.3706 0 .6911.016.9064.072.2454.0531.636.2179.5484.6911h.01zM8.356 8.3721c-.4607.0952-.9585.2073-1.4743.347-.4086.1117-.8343.2374-1.262.3856.232-.4517.4277-.8883.605-1.3035.2143-.5108.3906-1.0366.5684-1.5253.1752.3055.3705.616.5658.8914.3205.4356.656.8513.9916 1.2118v-.01zM6.0274 1.6192c.0726-.1452.2153-.2183.3395-.2183.373 0 .4442.4346.4442.7812 0 .5849-.1773 1.4732-.4807 2.4873-.5319-1.4122-.5684-2.594-.302-3.0497zm-1.954 8.4616c-.9064 1.5238-1.7768 2.4703-2.31 2.4703-.1053 0-.1939-.0376-.2655-.0917-.1072-.1081-.1602-.2363-.1242-.3806.1067-.5458 1.1197-1.3085 2.7002-1.998z"/>
</svg>
