<?xml version="1.0" encoding="UTF-8" standalone="no"?>
<svg
   xmlns:ns="http://ns.adobe.com/SaveForWeb/1.0/"
   xmlns:dc="http://purl.org/dc/elements/1.1/"
   xmlns:cc="http://creativecommons.org/ns#"
   xmlns:rdf="http://www.w3.org/1999/02/22-rdf-syntax-ns#"
   xmlns:svg="http://www.w3.org/2000/svg"
   xmlns="http://www.w3.org/2000/svg"
   xmlns:sodipodi="http://sodipodi.sourceforge.net/DTD/sodipodi-0.dtd"
   xmlns:inkscape="http://www.inkscape.org/namespaces/inkscape"
   version="1.1"
   id="Layer_1"
   x="0px"
   y="0px"
   viewBox="0 0 1936 1936"
   style="enable-background:new 0 0 1936 1936;"
   xml:space="preserve"
   sodipodi:docname="project.svg"
   inkscape:version="1.0.1 (1.0.1+r74)"><defs
   id="defs82" /><sodipodi:namedview
   pagecolor="#ffffff"
   bordercolor="#666666"
   borderopacity="1"
   objecttolerance="10"
   gridtolerance="10"
   guidetolerance="10"
   inkscape:pageopacity="0"
   inkscape:pageshadow="2"
   inkscape:window-width="2560"
   inkscape:window-height="1403"
   id="namedview80"
   showgrid="false"
   inkscape:zoom="0.62603306"
   inkscape:cx="968"
   inkscape:cy="904.10561"
   inkscape:window-x="2560"
   inkscape:window-y="0"
   inkscape:window-maximized="1"
   inkscape:current-layer="Layer_1"><inkscape:grid
     type="xygrid"
     id="grid84" /></sodipodi:namedview>
<style
   type="text/css"
   id="style65">
	.st0{fill:#FFFFFF;}
	.st1{fill:#31752F;}
	.st2{fill-rule:evenodd;clip-rule:evenodd;fill:#31752F;}
</style>
<metadata
   id="metadata67">
	<ns:sfw>
		<ns:slices />
		<ns:sliceSourceBounds
   bottomLeftOrigin="true"
   height="1936"
   width="1936"
   x="-944"
   y="-944" />
	</ns:sfw>
<rdf:RDF><cc:Work
     rdf:about=""><dc:format>image/svg+xml</dc:format><dc:type
       rdf:resource="http://purl.org/dc/dcmitype/StillImage" /><dc:title></dc:title></cc:Work></rdf:RDF></metadata>

<path
   id="path71"
   d="M 968 230.5 C 917.1 230.5 875.80078 271.79922 875.80078 322.69922 L 875.80078 1613.4004 C 875.80078 1664.3004 917.1 1705.5996 968 1705.5996 L 1150.5312 1705.5996 L 1150.5312 1613.4004 L 968 1613.4004 L 968 322.69922 L 1150.5312 322.69922 L 1150.5312 230.5 L 968 230.5 z M 1224.5625 230.5 L 1224.5625 322.69922 L 1843.8008 322.69922 L 1843.8008 1613.4004 L 1224.5625 1613.4004 L 1224.5625 1705.5996 L 1843.8008 1705.5996 C 1894.7008 1705.5996 1936 1664.3004 1936 1613.4004 L 1936 322.69922 C 1936 271.79922 1894.7008 230.5 1843.8008 230.5 L 1224.5625 230.5 z "
   style="fill-opacity:1" fill="#2D6E35"/>
<path
   id="path73"
   d="M 1014.0996 460.90039 L 1014.0996 599.19922 L 1150.5312 599.19922 L 1150.5312 460.90039 L 1014.0996 460.90039 z M 1224.5625 460.90039 L 1224.5625 599.19922 L 1475.0996 599.19922 L 1475.0996 787.69922 L 1357.0996 787.69922 L 1332.6992 816.30078 L 1541.5 1060.0996 L 1751.6992 816.30078 L 1725.8008 787.80078 L 1613.3008 787.80078 L 1613.3008 507 C 1613.3008 481.5 1592.6992 460.90039 1567.1992 460.90039 L 1224.5625 460.90039 z M 1258.9004 993.69922 L 1224.5625 1027.3633 L 1224.5625 1462.1504 L 1258.4004 1495.3008 L 1514.6992 1244.5 L 1258.9004 993.69922 z M 1150.5312 1099.9434 L 1100.8008 1148.6992 L 1100.8008 1340.9004 L 1150.5312 1389.6211 L 1150.5312 1099.9434 z "
   style="fill-opacity:1" fill="#2D6E35"/>
<path
   id="path75"
   d="M 1152.4004 0 L 0 201.90039 L 0 1734.0996 L 1152.4004 1936 L 1152.4004 0 z M 583.09766 552.16211 C 613.06953 552.38711 642.9 556.10078 672 563.30078 C 704.3 571.50078 734.19961 587.30039 759.09961 609.40039 C 783.19961 631.20039 801.49961 658.79961 812.09961 689.59961 C 830.19961 745.79961 834.6 805.50078 825 863.80078 C 821.8 881.90078 816.89922 899.70078 810.19922 916.80078 C 803.69922 933.00078 795.50078 948.40039 785.80078 962.90039 C 775.90078 977.70039 764.49922 991.40039 751.69922 1003.9004 C 737.69922 1017.2004 722.19961 1028.8 705.59961 1038.5 C 689.79961 1048.3 673.00039 1056.3 655.40039 1062.5 C 637.20039 1068.9 618.29922 1073.5008 599.19922 1076.3008 C 579.19922 1078.9008 559.00078 1079.7996 538.80078 1079.0996 L 460.90039 1079.0996 L 460.90039 1358.4004 L 322.59961 1350.0996 L 322.59961 566.5 L 553.09961 553.09961 C 563.09961 552.39961 573.10703 552.08711 583.09766 552.16211 z M 535.9668 695.69727 C 532.47754 695.6939 528.9875 695.79375 525.5 696 L 461 696 L 461 943.59961 L 464.19922 942.59961 L 525.5 942.59961 C 544.2 942.99961 562.90078 940.30078 580.80078 934.80078 C 611.60078 925.40078 635.70078 901.39922 645.30078 870.69922 C 650.90078 853.29922 653.69961 835.10078 653.59961 816.80078 C 653.89961 798.10078 651.10078 779.60039 645.30078 761.90039 C 640.50078 747.30039 632.10039 734.09961 620.90039 723.59961 C 609.50039 713.19961 595.70078 705.6 580.80078 701.5 C 566.17578 697.68125 551.08691 695.71187 535.9668 695.69727 z "
   style="fill-opacity:1" fill="#2D6E35"/>

</svg>
