<?xml version="1.0" encoding="UTF-8" standalone="no"?>
<svg
   xmlns:dc="http://purl.org/dc/elements/1.1/"
   xmlns:cc="http://creativecommons.org/ns#"
   xmlns:rdf="http://www.w3.org/1999/02/22-rdf-syntax-ns#"
   xmlns:svg="http://www.w3.org/2000/svg"
   xmlns="http://www.w3.org/2000/svg"
   xmlns:sodipodi="http://sodipodi.sourceforge.net/DTD/sodipodi-0.dtd"
   xmlns:inkscape="http://www.inkscape.org/namespaces/inkscape"
   width="100mm"
   height="100mm"
   viewBox="0 0 100 100"
   version="1.1"
   id="svg103"
   inkscape:version="1.0.2 (e86c870879, 2021-01-15)"
   sodipodi:docname="icon.svg">
  <defs
     id="defs97" />
  <sodipodi:namedview
     id="base"
     pagecolor="#ffffff"
     bordercolor="#666666"
     borderopacity="1.0"
     inkscape:pageopacity="0.0"
     inkscape:pageshadow="2"
     inkscape:zoom="1.07"
     inkscape:cx="263.60081"
     inkscape:cy="150.04746"
     inkscape:document-units="mm"
     inkscape:current-layer="layer1"
     inkscape:document-rotation="0"
     showgrid="false"
     inkscape:window-width="941"
     inkscape:window-height="1016"
     inkscape:window-x="965"
     inkscape:window-y="50"
     inkscape:window-maximized="0" />
  <metadata
     id="metadata100">
    <rdf:RDF>
      <cc:Work
         rdf:about="">
        <dc:format>image/svg+xml</dc:format>
        <dc:type
           rdf:resource="http://purl.org/dc/dcmitype/StillImage" />
        <dc:title></dc:title>
      </cc:Work>
    </rdf:RDF>
  </metadata>
  <g
     inkscape:label="Calque 1"
     inkscape:groupmode="layer"
     id="layer1">
    <path
       style="fill:#367844;fill-opacity:1;stroke:#000000;stroke-width:1;stroke-linecap:butt;stroke-linejoin:miter;stroke-miterlimit:4;stroke-dasharray:none;stroke-opacity:1"
       d="m 89,99 c 5.12332,0 10,-4.917172 10,-10 V 10 C 99,4.4063203 94.407399,0.95179906 89,1 L 9.8512026,1.7055233 C 4.9849411,1.7489006 1,5.9771362 1,11 v 78 c 0,4.599128 3.4388087,10 10,10 z"
       id="path948"
       sodipodi:nodetypes="sssssssss" />
    <path
       style="fill:#ffffff;fill-opacity:1;stroke:none;stroke-width:0.264583px;stroke-linecap:butt;stroke-linejoin:miter;stroke-opacity:1"
       d="M 11,7 50,90 89,7 Z"
       id="path119"
       sodipodi:nodetypes="cccc" />
    <path
       style="fill:#2f693a;fill-opacity:1;stroke:none;stroke-width:0.264583px;stroke-linecap:butt;stroke-linejoin:miter;stroke-opacity:1"
       d="M 37,18 V 58 H 47 V 45 c 0,0 2.2501,2.672802 5.5,2.672802 C 55.941015,47.672802 58,45 58,45 v 3.051579 L 68,48 V 18 H 58 v 20 c 0,2.405128 -3.558189,3 -5.5,3 C 50.558189,41 47,40.572929 47,38 V 18 Z"
       id="path944"
       sodipodi:nodetypes="ccccscccccssscc" />
    <path
       style="fill:#ffffff;fill-opacity:1;stroke:none;stroke-width:0.264583px;stroke-linecap:butt;stroke-linejoin:miter;stroke-opacity:1"
       d="M 70,62 V 76.39852 C 69.305815,75.310933 80.838204,74.150224 80.883816,79.75 80.928575,85.24504 69.078067,83.248193 70,82 v 4 c -0.105191,1.940792 16.336044,3.396601 16.269205,-6.695808 -0.0216,-3.261979 -1.555103,-6.438826 -6.595431,-7.229732 -1.518645,-0.238299 -4.609296,-0.148297 -4.609296,-0.148297 L 75,66.5 H 85 V 62 Z"
       id="path946"
       sodipodi:nodetypes="ccsccssccccc" />
  </g>
</svg>
