<?xml version="1.0" encoding="UTF-8" standalone="no"?>
<!DOCTYPE svg PUBLIC "-//W3C//DTD SVG 1.1//EN" "http://www.w3.org/Graphics/SVG/1.1/DTD/svg11.dtd">
<svg width="100%" height="100%" viewBox="0 0 1024 1024" version="1.1" xmlns="http://www.w3.org/2000/svg" xmlns:xlink="http://www.w3.org/1999/xlink" xml:space="preserve" xmlns:serif="http://www.serif.com/" style="fill-rule:evenodd;clip-rule:evenodd;stroke-linejoin:round;stroke-miterlimit:2;">
    <g id="Designer">
        <g transform="matrix(0.930556,0,0,0.930556,31.5556,33.4722)">
            <path d="M136,910L931,910L1016,765L619,77L573,77L560,54L401,54L327,183L327,184L358,237L358,238L202,505L109,559L8,735L8,736L87,872L114,872L136,910Z" style="fill:rgb(44,44,44);"/>
        </g>
        <g transform="matrix(0.930556,0,0,0.930556,31.5556,33.4722)">
            <path d="M318.969,237.509L293.052,193.199L293.052,173.954L381.337,20.052L579.807,20.052L592.807,43.052L638.605,43.052L1055.27,765.135L950.45,943.948L116.427,943.948L94.427,905.948L67.46,905.948L-25.948,745.144L-25.948,725.951L84.085,534.211L177.207,480.14L318.969,237.509ZM136,910L931,910L1016,765L619,77L573,77L560,54L401,54L327,183L327,184L358,237L358,238L202,505L109,559L8,735L8,736L87,872L114,872L136,910Z" style="fill:rgb(92,202,218);"/>
        </g>
        <g transform="matrix(0.930556,0,0,0.930556,31.5556,33.4722)">
            <path d="M412.807,606.611L504,765L952,765L860.807,606.611L412.807,606.611Z" style="fill:rgb(92,202,218);"/>
        </g>
        <path d="M489.462,448.048L618.762,227.611L822.753,580.626L566.199,580.617L489.462,448.048ZM479.04,465.816L544.76,580.616C544.76,580.616 494.586,580.614 455.86,580.613C446.793,580.613 438.42,575.759 433.914,567.891C429.408,560.024 429.458,550.346 434.045,542.525C453.644,509.112 479.04,465.816 479.04,465.816Z" style="fill:rgb(92,202,218);"/>
        <path d="M522.914,819.793L167.418,819.793L564.198,133.682L608.022,209.973L390.06,589.355L522.914,819.793Z" style="fill:rgb(92,202,218);"/>
    </g>
</svg>
