<svg viewBox="0 0 1000 1000" xmlns="http://www.w3.org/2000/svg" xmlns:serif="http://www.serif.com/" fill-rule="evenodd" clip-rule="evenodd" stroke-linejoin="round" stroke-miterlimit="1.414"><g transform="translate(-722.864 -408.776) scale(2.30947)"><path serif:id="affinity_designer_icon" d="M746 189.99c0-7.169-5.821-12.99-12.99-12.99H325.99c-7.169 0-12.99 5.821-12.99 12.99v407.02c0 7.169 5.821 12.99 12.99 12.99h407.02c7.169 0 12.99-5.821 12.99-12.99V189.99z" fill="#144e8c"/><clipPath id="a"><path serif:id="affinity_designer_icon" d="M746 189.99c0-7.169-5.821-12.99-12.99-12.99H325.99c-7.169 0-12.99 5.821-12.99 12.99v407.02c0 7.169 5.821 12.99 12.99 12.99h407.02c7.169 0 12.99-5.821 12.99-12.99V189.99z"/></clipPath><g clip-path="url(#a)"><path serif:id="affinity_designer_icon" d="M746 189.99c0-7.169-5.821-12.99-12.99-12.99H325.99c-7.169 0-12.99 5.821-12.99 12.99v407.02c0 7.169 5.821 12.99 12.99 12.99h407.02c7.169 0 12.99-5.821 12.99-12.99V189.99z" fill="#1b72be"/><path serif:id="affinity_designer_icon" d="M746 189.99c0-7.169-5.821-12.99-12.99-12.99H490.53L313 484.491V597.01c0 7.169 5.821 12.99 12.99 12.99h407.02c7.169 0 12.99-5.821 12.99-12.99V189.99z" fill="#0568aa"/><path d="M513.198 610H483l-78-156.814L557 177h24.46L422.333 452.617 513.197 610zM595 610h-75.307l-88.737-153.697H746.03L746 485 595 610zm-74.85-433h-25.29L313 491.99v43.805L520.15 177zm43.93 273.638h-85.646c-9.997 0-19.293-5.23-24.292-13.886a27.982 27.982 0 0 1 0-27.981l42.883-74.275 67.055 116.142zm181.92 0H570.575L500.272 328.87 587.955 177l31.77.02L573.58 334 595 378l151 59.38v13.258z" fill="#074f7f"/><path d="M1102 2813H582.167l-202.169-350.17H1102V2813zm-565.913 0H78v-252.47L523.44 1789h174.08L321.2 2440.81 536.087 2813zm112.694-390.1H472.775c-19.648 0-37.803-10.31-47.627-27.33a54.985 54.985 0 0 1 0-54.99c39.097-67.72 88.052-152.51 88.052-152.51l135.581 234.83zm453.219 0H694.881L536.24 2148.16 743.6 1789H1102v633.9z" fill="url(#_Radial2)" transform="translate(280.018 -579.481) scale(.42285)"/><path d="M1125.76 2831.83H593.04l-213.042-369h745.392l.37 369zM321.2 2440.81l225.76 391.02H46.573l-1.676-213.97 490.91-850.28h174.08L321.2 2440.81zm80.082 34.31l198.853 344.43h513.325l-.34-344.43H401.282zm141.619-695.25l-485.69 841.24 1.554 198.44h466.912l-218.666-378.74 381.592-660.94H542.901zm105.88 643.03H472.315l-.23-.01h-.459l-.23-.01h-.229l-.229-.01-.229-.01-.229-.01-.229-.01-.228-.01-.229-.01-.228-.01-.228-.02-.228-.01-.227-.02-.228-.01-.227-.02-.227-.02-.227-.02-.227-.02-.226-.02-.227-.02-.226-.02-.226-.03-.226-.02-.225-.03-.226-.02-.225-.03-.225-.03-.224-.03-.225-.03-.224-.03-.224-.03-.224-.03-.224-.04-.223-.03-.223-.04-.223-.03-.223-.04-.223-.04-.222-.04-.222-.04-.221-.04-.222-.04-.221-.04-.221-.05-.221-.04-.22-.05-.221-.04-.22-.05-.219-.05-.22-.05-.219-.04-.219-.06-.219-.05-.218-.05-.218-.05-.218-.06-.217-.05-.217-.05-.217-.06-.217-.06-.216-.06-.216-.06-.216-.06-.216-.06-.215-.06-.215-.06-.214-.06-.214-.07-.214-.06-.214-.07-.213-.07-.213-.06-.213-.07-.212-.07-.212-.07-.212-.07-.211-.08-.211-.07-.211-.07-.21-.07-.21-.08-.21-.08-.209-.07-.209-.08-.208-.08-.209-.08-.208-.08-.207-.08-.207-.08-.207-.08-.206-.09-.206-.08-.206-.09-.205-.08-.205-.09-.205-.09-.204-.09-.204-.08-.203-.1-.203-.09-.203-.09-.202-.09-.202-.09-.201-.1-.201-.09-.201-.1-.2-.09-.2-.1-.199-.1-.199-.1-.199-.1-.198-.1-.198-.1-.197-.1-.197-.1-.197-.11-.196-.1-.195-.11-.195-.1-.195-.11-.194-.11-.194-.11-.194-.11-.193-.1-.192-.11-.192-.12-.192-.11-.191-.11-.19-.12-.191-.11-.189-.11-.19-.12-.189-.12-.188-.12-.188-.11-.187-.12-.187-.12-.186-.12-.186-.12-.186-.13-.185-.12-.184-.12-.184-.13-.184-.12-.183-.13-.182-.13-.182-.12-.182-.13-.181-.13-.18-.13-.18-.13-.18-.13-.178-.13-.179-.14-.178-.13-.177-.13-.177-.14-.176-.13-.176-.14-.175-.14-.175-.14-.174-.13-.174-.14-.173-.14-.172-.15-.172-.14-.172-.14-.17-.14-.171-.15-.169-.14-.17-.14-.168-.15-.168-.15-.168-.14-.167-.15-.166-.15-.166-.15-.165-.15-.164-.15-.164-.15-.164-.15-.163-.16-.162-.15-.161-.16-.162-.15-.16-.16-.16-.15-.159-.16-.159-.16-.158-.16-.157-.16-.157-.16-.156-.16-.156-.16-.155-.16-.154-.16-.154-.17-.153-.16-.152-.16-.152-.17-.151-.17-.151-.16-.149-.17-.15-.17-.148-.17-.148-.17-.148-.17-.146-.17-.146-.17-.146-.17-.144-.17-.144-.18-.144-.17-.142-.18-.142-.17-.142-.18-.14-.18-.14-.17-.14-.18-.138-.18-.138-.18-.137-.18-.137-.18-.136-.18-.135-.18-.134-.18-.134-.19-.133-.18-.133-.19-.131-.18-.131-.19-.131-.19-.129-.18-.129-.19-.128-.19-.127-.19-.127-.19-.126-.19-.125-.19-.125-.19-.123-.19-.123-.2-.123-.19-.121-.19-.121-.2-.12-.19-.119-.2-.119-.2-.118-.19-.117-.2-.116-.2-.115-.2-.115-.2-.114-.2-.113-.2-.112-.2-.111-.2-.11-.2-.109-.2-.109-.2-.107-.21-.107-.2-.105-.2-.105-.21-.104-.2-.103-.2-.102-.21-.101-.2-.101-.21-.099-.2-.098-.21-.098-.21-.097-.2-.095-.21-.095-.21-.094-.2-.093-.21-.093-.21-.091-.2-.09-.21-.09-.21-.088-.21-.088-.21-.087-.21-.086-.21-.085-.21-.084-.21-.083-.21-.082-.21-.082-.21-.08-.21-.08-.21-.079-.22-.077-.21-.077-.21-.076-.21-.075-.21-.075-.22-.073-.21-.072-.21-.072-.22-.07-.21-.07-.22-.069-.21-.068-.21-.067-.22-.066-.21-.065-.22-.064-.22-.064-.21-.062-.22-.062-.21-.061-.22-.059-.21-.059-.22-.058-.22-.057-.21-.057-.22-.055-.22-.054-.22-.054-.21-.053-.22-.051-.22-.051-.22-.05-.21-.049-.22-.048-.22-.047-.22-.047-.22-.045-.22-.045-.22-.043-.22-.043-.22-.042-.22-.041-.21-.04-.22-.039-.22-.038-.22-.037-.23-.037-.21-.035-.23-.035-.22-.034-.22-.033-.22-.031-.22-.032-.22-.03-.22-.029-.22-.028-.22-.028-.22-.026-.22-.026-.23-.025-.22-.023-.22-.023-.22-.022-.22-.021-.22-.021-.23-.019-.22-.018-.22-.018-.22-.017-.22-.015-.23-.015-.22-.014-.22-.013-.22-.012-.22-.012-.23-.01-.22-.009-.22-.009-.22-.008-.23-.006-.22-.006-.22-.005-.22-.004-.23-.003-.22-.003-.22-.001-.22v-.45l.001-.22.003-.22.003-.23.004-.22.005-.22.006-.22.006-.23.008-.22.009-.22.009-.22.01-.23.012-.22.012-.22.013-.22.014-.23.015-.22.015-.22.017-.22.018-.22.018-.22.019-.23.021-.22.021-.22.022-.22.023-.22.023-.23.025-.22.026-.22.026-.22.028-.22.028-.22.029-.22.03-.22.032-.23.031-.22.033-.22.034-.22.035-.22.035-.22.037-.22.037-.22.038-.22.039-.22.04-.22.041-.22.042-.22.043-.22.043-.22.045-.21.045-.22.047-.22.047-.22.048-.22.049-.22.05-.22.051-.21.051-.22.053-.22.054-.22.054-.21.055-.22.057-.22.057-.22.058-.21.059-.22.059-.22.061-.21.062-.22.062-.21.064-.22.064-.21.065-.22.066-.21.067-.22.068-.21.069-.22.07-.21.07-.22.072-.21.072-.21.073-.21.075-.22.075-.21.076-.21.077-.21.077-.22.079-.21.08-.21.08-.21.082-.21.082-.21.083-.21.084-.21.085-.21.086-.21.087-.21.088-.21.088-.21.09-.21.09-.21.091-.21.093-.2.093-.21.094-.21.095-.2.095-.21.097-.21.098-.2.098-.21.099-.21.101-.2.101-.2.102-.21.103-.2.104-.21.105-.2.105-.2.107-.2.107-.21.109-.2.109-.2.11-.2.111-.2.112-.2.113-.21.114-.19.115-.2 88.052-152.51 135.581 234.83zm476.359 0H694.861L536.24 2148.16l219.727-380.58h364.723l4.45 655.32zm-689.344-76.19l-.096.17-.088.15-.088.16-.087.15-.086.16-.086.16-.085.15-.085.16-.082.15-.083.16-.083.16-.081.16-.081.16-.08.16-.079.15-.078.16-.078.16-.078.16-.076.16-.076.16-.075.16-.074.16-.074.16-.073.16-.072.17-.072.16-.071.16-.07.16-.07.16-.068.16-.068.16-.068.17-.066.16-.066.16-.066.17-.064.16-.064.16-.063.17-.063.16-.062.17-.061.16-.06.16-.06.17-.059.17-.058.16-.057.16-.058.17-.056.17-.055.16-.055.17-.054.16-.053.17-.053.17-.052.16-.052.17-.05.17-.05.16-.049.17-.049.17-.048.17-.047.17-.046.16-.046.17-.045.17-.044.17-.044.17-.043.16-.042.17-.042.17-.041.17-.04.17-.039.17-.039.17-.038.17-.037.17-.037.17-.036.17-.035.17-.035.17-.034.17-.033.17-.032.17-.032.17-.031.17-.031.17-.029.17-.029.17-.029.17-.027.17-.027.18-.026.17-.026.17-.024.17-.025.17-.023.17-.023.17-.022.17-.021.18-.021.17-.02.17-.019.17-.018.18-.018.17-.017.17-.017.17-.015.18-.015.17-.015.17-.013.17-.013.17-.012.18-.012.17-.011.17-.01.17-.009.18-.009.17-.008.17-.007.18-.007.17-.006.17-.005.17-.005.18-.004.17-.003.17-.002.17-.002.18-.001.17v.35l.001.17.002.17.002.17.003.18.004.17.005.17.005.18.006.17.007.17.007.17.008.18.009.17.009.17.01.18.011.17.012.17.012.17.013.18.013.17.015.17.015.17.015.18.017.17.017.17.018.17.018.17.019.18.02.17.021.17.021.17.022.17.023.17.023.18.025.17.024.17.026.17.026.17.027.17.027.17.029.18.029.17.029.17.031.17.031.17.032.17.032.17.033.17.034.17.035.17.035.17.036.17.037.17.037.17.038.17.039.17.039.17.04.17.041.17.042.16.042.17.043.17.044.17.044.17.045.17.046.17.046.16.047.17.048.17.049.17.049.16.05.17.051.17.051.16.052.17.053.17.053.16.054.17.055.17.055.16.056.17.057.16.058.17.058.16.059.17.06.16.061.17.06.16.062.16.063.17.063.16.064.17.065.16.065.16.065.17.067.16.068.16.068.16.069.17.069.16.07.16.071.16.072.16.072.16.073.16.073.16.075.17.075.16.076.15.076.17.077.15.078.16.079.16.079.16.08.16.081.16.081.16.083.15.082.16.084.16.084.16.085.15.086.16.086.15.087.16.088.16.088.15.089.16.09.15.09.16.091.15.091.15.092.15.093.16.093.15.093.15.094.15.095.15.095.15.096.15.097.15.097.14.097.15.099.15.098.15.099.14.1.15.101.14.1.15.101.14.102.14.103.15.103.14.104.14.103.14.105.14.106.14.105.14.106.14.107.14.107.14.109.14.107.13.109.14.11.14.109.13.112.14.11.13.111.14.113.13.112.14.112.13.114.13.114.13.114.13.116.13.115.13.116.13.116.13.117.13.118.13.118.13.118.12.119.13.12.13.12.12.12.13.121.12.121.12.121.13.123.12.123.12.123.12.123.12.126.13.124.11.124.12.127.12.125.12.126.12.127.12.128.11.128.12.128.11.129.12.129.11.129.12.132.11.129.11.131.12.133.11.13.11.132.11.134.11.132.11.135.11.134.11.134.11.134.1.136.11.136.11.135.1.137.1.137.11.138.1.138.11.138.1.138.1.139.1.139.11.141.1.14.1.141.1.141.09.14.1.143.1.143.1.142.09.142.1.144.1.144.09.145.09.144.1.144.09.145.09.147.1.146.09.147.09.146.09.147.09.148.08.148.09.148.09.148.09.149.08.149.09.151.08.15.09.149.08.151.09.153.08.151.08.151.08.151.08.153.09.155.08.152.07.152.08.155.08.154.08.155.07.155.08.155.08.155.07.155.08.157.07.156.07.157.07.158.08.156.07.157.07.16.07.156.07.159.07.161.06.158.07.159.07.16.06.159.07.161.06.161.07.162.06.16.07.161.06.163.06.163.06.162.06.161.06.163.06.164.06.165.06.162.05.163.06.164.05.167.06.164.05.164.06.167.05.165.05.165.06.166.05.167.05.167.05.166.05.167.04.168.05.167.05.168.05.167.04.17.05.168.04.168.05.17.04.168.04.171.05.169.04.168.04.172.04.17.04.17.03.171.04.171.04.172.04.171.03.172.04.171.03.172.04.173.03.173.03.171.03.172.03.174.03.174.03.174.03.173.03.173.03.174.03.174.02.175.03.176.02.174.03.173.02.175.02.177.02.176.02.173.03.176.02.178.01.177.02.175.02.176.02.177.01.176.02.176.01.178.02.178.01.178.01.177.02.177.01.179.01.179.01.177.01.176.01h.18l.178.01.179.01h.18l.179.01h.357l.181.01h155.261L513.2 2212.64l-77.404 134.07zm327.265-566.84l-212.632 368.29 151.527 262.45h410.814l-4.28-630.74H763.061z" fill="url(#_Linear3)" transform="translate(280.018 -579.481) scale(.42285)"/></g></g><defs><radialGradient id="_Radial2" cx="0" cy="0" r="1" gradientUnits="userSpaceOnUse" gradientTransform="translate(860.679 1596.55) scale(1216.45)"><stop offset="0" stop-color="#6be1fb"/><stop offset="1" stop-color="#38bdfa"/></radialGradient><linearGradient id="_Linear3" x2="1" gradientUnits="userSpaceOnUse" gradientTransform="rotate(-90.001 1849.3 963.717) scale(1024)"><stop offset="0" stop-color="#4ac5fa"/><stop offset="1" stop-color="#97e8fc"/></linearGradient></defs></svg>