<svg role="img" focusable="false" aria-hidden="true" xmlns="http://www.w3.org/2000/svg" viewBox="0 0 14 14"><path d="M 1,1 1,13 13,13 13,1 1,1 Z M 6.8475,7.1225 C 6.47325,7.497 5.885,7.6725 5.2205,7.6725 5.045,7.6725 4.8845,7.6647 4.76225,7.642 l 0,1.94 -0.93175,0 0,-5.079 c 0.336,-0.06125 0.802,-0.107 1.436,-0.107 0.6875,0 1.1915,0.14525 1.52,0.42 0.3055,0.252 0.504,0.65675 0.504,1.138 -2.5e-4,0.48875 -0.15275,0.8935 -0.443,1.1685 z M 8.65725,9.65825 C 8.207,9.65825 7.80225,9.5515 7.527,9.39875 l 0.183,-0.68 C 7.92375,8.849 8.32875,8.986 8.66475,8.986 c 0.4125,0 0.5955,-0.16825 0.5955,-0.41225 0,-0.252 -0.1525,-0.38175 -0.6105,-0.54225 C 7.924,7.77925 7.61825,7.382 7.626,6.947 c 0,-0.65675 0.5425,-1.16875 1.40525,-1.16875 0.41275,0 0.7715,0.107 0.98525,0.2215 L 9.83325,6.66425 C 9.673,6.57275 9.375,6.4505 9.04675,6.4505 8.7105,6.4505 8.5275,6.611 8.5275,6.84025 c 0,0.23675 0.17575,0.35125 0.6495,0.51925 0.672,0.2445 0.985,0.588 0.99275,1.13825 0,0.67175 -0.527,1.1605 -1.5125,1.1605 z M 5.3045,5.114 c -0.25975,0 -0.443,0.023 -0.54225,0.04575 l 0,1.7415 C 4.87675,6.93175 5.0295,6.9395 5.2205,6.9395 5.92325,6.9395 6.35075,6.59575 6.35075,5.99225 6.35075,5.4195 5.95375,5.114 5.3045,5.114 Z" fill="#00CDF7" /></svg>