<svg xmlns="http://www.w3.org/2000/svg" viewBox="8 8 16 16">
    <path d="M8.5,10.4766l9-2.0781v15.2031l-9-2.0781V10.4766z M9.7344,13.2109l1.0547,5.0938l1.0938,0.0625l0.7422-3.4062c0.0049-0.0259,0.0103-0.0479,0.0156-0.0664c0.0049-0.0181,0.0103-0.04,0.0156-0.0664c0.0156-0.0781,0.0259-0.1562,0.0312-0.2344c0.0049-0.0781,0.0127-0.1562,0.0234-0.2344h0.0156c0,0.1045,0.0063,0.2061,0.0195,0.3047c0.0127,0.0991,0.0298,0.1982,0.0508,0.2969l0.75,3.5l1.1875,0.0703l1.3281-5.6953l-1.1406,0.0625L14.25,16.6562c-0.021,0.1045-0.0381,0.207-0.0508,0.3086c-0.0132,0.1016-0.0195,0.2051-0.0195,0.3086h-0.0078c-0.0107-0.0986-0.021-0.1992-0.0312-0.3008c-0.0107-0.1016-0.0264-0.2012-0.0469-0.3008L13.3281,13l-1.0859,0.0625l-0.7812,3.5156c-0.0264,0.0996-0.0459,0.1992-0.0586,0.3008c-0.0132,0.1016-0.0195,0.2051-0.0195,0.3086h-0.0234c0-0.0986-0.0054-0.1992-0.0156-0.3008c-0.0107-0.1016-0.0234-0.2012-0.0391-0.3008l-0.5859-3.4375L9.7344,13.2109z M22.5,10.4922c0.1924,0,0.3223,0.0381,0.3906,0.1133c0.0674,0.0757,0.1016,0.207,0.1016,0.3945v10c0,0.1875-0.0342,0.3193-0.1016,0.3945c-0.0684,0.0762-0.1982,0.1133-0.3906,0.1133H18V20h4v-0.4922h-4v-1.0156h4V18h-4v-0.9922h4v-0.5156h-4v-0.9844h4v-0.5h-4V14h4v-0.4922h-4v-1.0156h4V12h-4v-1.5078H22.5z" fill="#2b7cd3" />
</svg>
