<svg xmlns="http://www.w3.org/2000/svg" viewBox="8 8 16 16">
  <path fill="#2b7cd3" d="M8.5 10.4766l9-2.0781v15.2031l-9-2.0781V10.4766zm1.2344 2.7343l1.0547 5.0938 1.0938.0625.7422-3.4062a.7407.7407 0 01.0156-.0664c.0049-.0181.0103-.04.0156-.0664a1.8251 1.8251 0 00.0312-.2344 3.2116 3.2116 0 01.0234-.2344h.0156c0 .1045.0063.2061.0195.3047a3.668 3.668 0 00.0508.2969l.75 3.5 1.1875.0703 1.3281-5.6953-1.1406.0625-.6718 3.7577a4.2251 4.2251 0 00-.0508.3086 2.4 2.4 0 00-.0195.3086h-.0078a37.7809 37.7809 0 01-.0312-.3008 3.094 3.094 0 00-.0469-.3008L13.3281 13l-1.0859.0625-.7812 3.5156a2.2662 2.2662 0 00-.0586.3008 2.4 2.4 0 00-.0195.3086h-.0234c0-.0986-.0054-.1992-.0156-.3008a5.8808 5.8808 0 00-.0391-.3008l-.5859-3.4375-.9845.0625zM22.5 10.4922c.1924 0 .3223.0381.3906.1133.0674.0757.1016.207.1016.3945v10c0 .1875-.0342.3193-.1016.3945-.0684.0762-.1982.1133-.3906.1133H18V20h4v-.4922h-4v-1.0156h4V18h-4v-.9922h4v-.5156h-4v-.9844h4v-.5h-4V14h4v-.4922h-4v-1.0156h4V12h-4v-1.5078h4.5z"/>
</svg>
