<svg xmlns="http://www.w3.org/2000/svg" aria-hidden="true" viewBox="0 0 14 14">
  <path fill="#C099CD" d="M9.7155 5.976c-.646 0-.918.5865-.9605 1.0112h1.8188c.0087-.3822-.1613-1.0112-.8583-1.0112zM5.083 4.599h-.017c-.085.3315-.17.731-.272 1.0707l-.442 1.411h1.4702l-.4505-1.411c-.1102-.3482-.2037-.7392-.2887-1.0707zM1.0003 1v12h11.9994V1H1.0002zm5.5192 8.4947L6.001 7.8716H4.1822l-.493 1.6233H2.6098l1.8358-5.7286h1.3342L7.641 9.4948H6.5195zm5.0062-1.7765H8.755c.0257.748.612 1.071 1.275 1.071.4845 0 .833-.068 1.1475-.187l.1527.7225c-.357.1445-.8497.255-1.4447.255-1.3428 0-2.1333-.8245-2.1333-2.0907 0-1.1472.697-2.2267 2.023-2.2267 1.3428 0 1.7848 1.1047 1.7848 2.0142-.0003.1955-.017.3483-.0343.4417z"/>
</svg>
