<svg viewBox="0 0 1000 1000" xmlns="http://www.w3.org/2000/svg" xmlns:serif="http://www.serif.com/" fill-rule="evenodd" clip-rule="evenodd" stroke-linejoin="round" stroke-miterlimit="1.414"><g serif:id="affinity_photo_icon" transform="translate(-722.864 -408.776) scale(2.30947)"><path d="M746 189.99c0-7.169-5.821-12.99-12.99-12.99H325.99c-7.169 0-12.99 5.821-12.99 12.99v407.02c0 7.169 5.821 12.99 12.99 12.99h407.02c7.169 0 12.99-5.821 12.99-12.99V189.99z" fill="none"/><clipPath id="a"><path d="M746 189.99c0-7.169-5.821-12.99-12.99-12.99H325.99c-7.169 0-12.99 5.821-12.99 12.99v407.02c0 7.169 5.821 12.99 12.99 12.99h407.02c7.169 0 12.99-5.821 12.99-12.99V189.99z"/></clipPath><g clip-path="url(#a)"><path d="M746 189.99c0-7.169-5.821-12.99-12.99-12.99H325.99c-7.169 0-12.99 5.821-12.99 12.99v407.02c0 7.169 5.821 12.99 12.99 12.99h407.02c7.169 0 12.99-5.821 12.99-12.99V189.99z" fill="#7e4dd2"/><path serif:id="affinity_designer_icon" d="M746 189.99c0-7.169-5.821-12.99-12.99-12.99H490.53L313 484.491V597.01c0 7.169 5.821 12.99 12.99 12.99h407.02c7.169 0 12.99-5.821 12.99-12.99V189.99z" fill="#7140c2"/><path d="M751.422 615.568l-159.188.035-91.974-159.3h251.396c-.061 53.06-.174 106.206-.234 159.265zm-165.744.03H334.62l125.6-217.3 125.458 217.3zm-257.475 0h-20.736l-.07-113.857 96.53-167.245h86.6c-54.095 93.693-108.229 187.41-162.324 281.103zm220.06-281.077c8.326.104 16.267 4.67 20.541 11.86 6.634 11.378 13.172 22.81 19.758 34.215 4 7.009 4.3 16.016.38 23.354-.094.177-.19.352-.29.528-6.533 11.435-13.167 22.81-19.753 34.215-4.096 7.033-11.855 11.673-20.035 11.945-.199.007-.597 0-.597 0h-37.035-.32c-8.166-.035-16.082-4.316-20.407-11.265-.109-.17-.212-.343-.316-.516-6.63-11.379-13.168-22.81-19.754-34.215-4.04-7.07-4.235-16.14-.385-23.356.095-.176.195-.352.29-.527 6.534-11.435 13.172-22.81 19.753-34.215 4.092-7.017 11.86-11.738 20.035-12.01.204-.007.403-.01.602-.013 12.514-.053 25.023-.053 37.533 0zM751.599 171.4v279.238H568.557L729.777 171.4h21.822zM598.776 386.944L486.226 192l11.895-20.6h225.1L598.776 386.944zm-40.052-58.074l-151.507-.024 75.732-131.172c25.244 43.724 50.53 87.473 75.775 131.196z" fill="#58328a" fill-rule="nonzero"/><path d="M1227.64 999.999h-27.5l-.15-246.558 217.5-376.721h170l-359.85 623.279zM2200 658v342l-347.66-.001L1654.89 658H2200zm-392.66 341.999h-535l267.65-463.064 267.35 463.064zM2200 619h-387.39L2169.99-.001h30L2200 619zm-457.04-242.984c14.81.062 28.98 8.766 36.64 21.665.08.131.23.394.23.394l44.95 77.864s.26.435.38.645c7.35 12.853 7.63 29.049.29 42.136-15.07 26.364-30.37 52.602-45.55 78.903-7.46 12.791-21.58 21.136-36.58 21.323-28.63.12-86.03.054-86.11.054-14.81-.062-29.21-7.963-36.87-20.862-.17-.28-.5-.85-.5-.85s-44.96-77.872-45.06-78.053c-7.35-12.853-7.34-29.459 0-42.546l.33-.577s30.09-52.217 45.16-78.326c7.46-12.791 21.6-21.591 36.6-21.779.25-.001.75-.012.75-.012l84.83.021h.51zM1634.99-.001h490l-265 458.994-245-424.353 20-34.641zm110 337.75h-305l152.5-264.138 152.5 264.138z" fill="url(#_Radial2)" transform="matrix(.433 0 0 .433 -206.6 177)"/><path d="M1203.7 1041.47l-27-.86.32-247.375 240.47-416.515h170l-383.79 664.75zm626.14-2.5l-578.19-3.17 288.34-498.865 289.85 502.035zm391.44-1.49l-348.66-2.36L1654.89 658h567.71l-1.32 379.48zm-796.86-648.76l-235.41 407.738-.3 232.532 8.19.26 369.81-640.53h-142.29zm-152.04 635.2l536.61 2.94-269-465.935-267.61 462.995zM1675.67 670l203.91 353.17 329.74 2.23 1.23-355.4h-534.88zm66.78-293.984h.51l.18.001.17.002.17.003.18.003.17.005.17.005.17.006.18.006.17.008.17.008.18.009.17.009.17.011.17.011.18.012.17.013.17.014.17.014.18.015.17.016.17.016.17.018.17.018.18.019.17.019.17.021.17.021.17.022.17.022.17.024.17.024.17.025.34.052.34.055.34.057.34.061.34.064.34.066.34.07.33.072.34.075.34.078.33.081.34.084.33.086.33.09.33.092.34.094.33.098.33.1.33.103.32.106.33.109.33.111.32.114.33.116.32.119.32.122.33.125.32.127.32.13.32.132.31.135.32.137.32.14.31.143.32.145.31.147.31.15.31.153.31.155.31.157.31.16.3.163.31.165.3.167.3.169.3.172.3.175.3.177.3.179.29.181.3.184.29.186.29.188.29.191.29.193.29.195.28.198.29.199.28.202.28.205.28.206.28.208.28.211.27.213.28.215.27.217.27.219.27.222.27.223.26.226.27.227.26.23.26.232.26.233.26.236.25.238.26.24.25.241.25.244.25.246.24.247.25.25.24.252.24.253.24.255.23.257.24.259.23.261.23.263.23.264.23.267.23.268.22.27.22.272.22.273.21.275.22.277.21.279.21.28.21.283.21.283.2.286.2.287.2.289.2.29.19.292.19.294.19.295.19.297.19.299.18.3.18.301.23.394 44.95 77.864.38.645.17.302.17.303.16.304.16.306.17.306.15.308.16.309.15.31.15.311.15.312.14.313.15.314.14.315.13.316.14.317.13.318.13.319.13.32.12.321.12.321.12.323.12.323.11.324.11.325.11.326.11.326.1.327.1.328.1.329.09.329.1.33.09.331.08.331.09.332.08.333.08.333.08.333.07.335.07.334.07.335.07.336.06.336.06.337.06.337.05.337.06.338.05.338.04.339.05.339.04.339.04.34.04.339.03.34.03.341.03.34.03.341.02.341.02.341.02.341.02.342.01.341.01.342.01.342V498.59l-.01.342v.341l-.02.342-.01.342-.02.341-.02.342-.02.341-.02.341-.03.341-.03.341-.03.341-.04.341-.04.34-.04.34-.04.339-.05.34-.05.339-.05.339-.06.338-.05.338-.06.338-.07.337-.06.337-.07.337-.07.336-.08.335-.07.335-.08.335-.08.334-.09.333-.09.333-.09.332-.09.332-.1.331-.09.33-.11.33-.1.329-.11.328-.11.328-.11.327-.11.326-.12.326-.12.324-.13.324-.12.323-.13.322-.13.321-.14.321-.13.319-.15.319-.14.318-.14.316-.15.316-.15.315-.16.314-.15.312-.16.312-.17.31-.16.31-.17.308-.17.308-1.41 2.471-1.42 2.47-1.41 2.47-1.42 2.47-1.42 2.468-1.42 2.468-1.42 2.468-1.42 2.467-1.42 2.467-1.42 2.466-2.85 4.931-2.85 4.93-2.85 4.929-2.86 4.928-2.85 4.928-5.71 9.855-2.85 4.928-2.85 4.929-2.85 4.929-2.85 4.931-.18.299-.18.297-.18.296-.18.294-.18.292-.19.291-.19.289-.2.287-.19.286-.2.284-.2.282-.2.28-.2.279-.21.277-.21.275-.21.273-.21.271-.22.27-.21.268-.22.266-.22.264-.23.262-.22.261-.23.258-.23.257-.23.255-.23.253-.24.251-.24.249-.24.247-.24.245-.24.244-.25.241-.25.239-.24.237-.26.236-.25.233-.25.231-.26.23-.26.227-.26.225-.26.223-.26.221-.27.219-.26.217-.27.214-.27.213-.28.21-.27.209-.28.206-.27.204-.28.202-.28.2-.28.197-.28.195-.29.193-.29.191-.28.189-.29.186-.29.184-.3.182-.29.18-.29.177-.3.175-.3.173-.3.17-.3.168-.3.166-.3.163-.31.161-.3.159-.31.156-.31.154-.31.151-.31.149-.31.147-.31.144-.32.142-.31.139-.32.137-.32.134-.32.132-.32.129-.32.127-.32.124-.32.122-.32.119-.33.117-.33.114-.32.112-.33.109-.33.106-.33.104-.33.101-.33.098-.33.096-.34.094-.33.09-.34.088-.33.085-.34.083-.34.08-.33.077-.34.074-.34.072-.34.069-.34.066-.34.063-.35.061-.34.058-.34.055-.35.052-.34.049-.35.047-.34.044-.35.041-.35.038-.34.035-.35.032-.35.03-.35.026-.35.024-.35.02-.35.018-.35.015-.35.012-.35.009-.35.005-2.77.011-2.92.01-3.05.008-3.18.008-3.28.007-3.37.006-3.45.005-3.5.004-7.12.007-7.17.004-7.08.002h-6.87l-6.54-.001-6.08-.002-5.49-.003-4.78-.004-6.91-.005-2.55-.003-.35-.003-.34-.006-.35-.008-.35-.012-.34-.014-.35-.017-.34-.02-.35-.023-.34-.025-.35-.029-.34-.031-.35-.034-.34-.036-.34-.04-.35-.042-.34-.045-.34-.048-.34-.05-.35-.053-.34-.056-.34-.059-.34-.061-.33-.064-.34-.067-.34-.069-.34-.072-.34-.075-.33-.077-.34-.08-.33-.083-.34-.085-.33-.088-.33-.09-.33-.093-.33-.096-.34-.098-.33-.101-.32-.103-.33-.106-.33-.109-.32-.111-.33-.114-.33-.116-.32-.118-.32-.121-.32-.124-.32-.126-.32-.129-.32-.131-.32-.134-.31-.136-.32-.138-.31-.141-.32-.144-.31-.145-.31-.149-.31-.15-.31-.153-.31-.156-.3-.158-.31-.16-.3-.163-.3-.165-.3-.167-.3-.17-.3-.172-.3-.174-.3-.177-.29-.179-.29-.181-.3-.184-.29-.186-.28-.188-.29-.191-.29-.192-.28-.195-.28-.198-.29-.199-.27-.202-.28-.204-.28-.206-.27-.209-.28-.21-.27-.213-.27-.215-.27-.217-.26-.22-.27-.221-.26-.224-.26-.226-.26-.228-.26-.23-.26-.232-.25-.234-.25-.237-.25-.238-.25-.241-.25-.243-.24-.244-.24-.247-.24-.249-.24-.251-.24-.253-.23-.255-.24-.257-.23-.259-.23-.262-.22-.263-.23-.265-.22-.267-.22-.269-.22-.271-.21-.273-.22-.275-.21-.277-.21-.278-.2-.281-.21-.283-.2-.284-.2-.287-.2-.288-.1-.145-.09-.146-.1-.145-.1-.147-.09-.146-.1-.148-.09-.147-.1-.149-.09-.148-.09-.149-.09-.15-.09-.15-.1-.15-.08-.151-.5-.85-45.06-78.053-.09-.151-.08-.151-.08-.152-.09-.152-.08-.152-.08-.152-.17-.306-.16-.307-.15-.309-.16-.31-.15-.311-.15-.312-.15-.313-.14-.315-.14-.315-.14-.317-.14-.318-.13-.319-.13-.32-.13-.321-.12-.322-.13-.323-.12-.324-.11-.325-.12-.326-.11-.327-.11-.328-.1-.329-.11-.329-.1-.331-.1-.331-.09-.332-.09-.332-.09-.334-.09-.334-.09-.335-.08-.336-.08-.336-.07-.337-.08-.337-.07-.339-.07-.338-.06-.34-.07-.339-.06-.341-.05-.341-.06-.341-.05-.342-.05-.342-.05-.343-.04-.343-.04-.343-.04-.344-.04-.344-.03-.344-.04-.345-.02-.345-.03-.345-.02-.346-.02-.346-.02-.345-.01-.346-.01-.347-.01-.346-.01-.346v-.347l-.01-.346.01-.347v-.347l.01-.346.01-.347.01-.347.01-.346.02-.346.02-.347.02-.346.03-.346.03-.346.03-.346.03-.345.04-.345.04-.345.04-.345.04-.345.05-.344.05-.344.05-.343.06-.343.06-.343.06-.342.06-.342.07-.341.06-.341.08-.341.07-.34.08-.339.08-.339.08-.338.08-.338.09-.337.09-.336.09-.336.1-.335.1-.334.1-.334.1-.332.11-.332.11-.332.11-.33.11-.33.12-.328.12-.328.12-.327.13-.326.13-.326.13-.324.13-.323.13-.322.14-.321.14-.321.15-.319.14-.318.15-.317.15-.315.16-.315.16-.314.16-.312.16-.311.16-.31.17-.309.17-.307.33-.577 4.94-8.567 5.38-9.332 6.61-11.473 7.32-12.698 7.5-13.003 7.15-12.391 3.27-5.68 2.99-5.182.18-.299.18-.298.18-.296.18-.294.19-.293.19-.292.19-.29.19-.288.19-.287.2-.286.2-.283.2-.283.21-.28.2-.279.21-.277.21-.276.22-.273.21-.273.22-.27.22-.269.22-.267.22-.265.23-.264.22-.262.24-.26.23-.258.23-.256.24-.255.23-.253.24-.251.25-.249.24-.247.24-.245.25-.244.25-.241.25-.24.26-.237.25-.236.26-.234.25-.231.27-.23.26-.228.26-.226.27-.223.26-.222.27-.22.27-.217.27-.216.28-.213.27-.211.28-.209.28-.207.28-.205.28-.203.28-.2.29-.199.29-.196.28-.194.29-.191.29-.19.3-.187.29-.185.3-.182.29-.181.3-.178.3-.176.3-.173.3-.171.31-.169.3-.166.31-.164.3-.161.31-.159.31-.157.31-.154.31-.152.32-.149.31-.147.32-.144.31-.142.32-.139.32-.137.32-.134.32-.132.32-.129.33-.127.32-.124.33-.121.32-.118.33-.116.33-.114.33-.111.33-.108.33-.105.33-.103.33-.099.33-.098.34-.094.33-.092.34-.089.34-.086.33-.083.34-.081.34-.077.34-.075.34-.072.34-.069.34-.067.35-.063.34-.061.34-.057.35-.055.17-.026.17-.025.17-.025.18-.024.17-.023.17-.023.18-.022.17-.021.17-.02.18-.02.17-.018.17-.018.18-.018.17-.016.17-.016.18-.015.17-.014.18-.013.17-.013.18-.012.17-.011.18-.011.17-.009.18-.009.17-.008.18-.007.17-.007.18-.006.17-.005.18-.004.17-.003.18-.003.23-.002.24-.004.28-.006 84.83.021zM2220.63 619h-408.02l377.98-654.681 31.11-1.909-1.07 656.59zm-563.06-231.002l-.31.006-.24.002-.12.002-.12.002-.13.003-.12.004-.12.004-.12.004-.12.005-.12.006-.13.006-.12.007-.12.007-.12.008-.13.008-.12.009-.12.009-.12.01-.12.011-.12.011-.13.011-.12.013-.12.012-.12.013-.12.014-.12.014-.12.015-.12.015-.13.016-.12.016-.12.017-.12.017-.12.018-.11.017-.26.04-.24.041-.24.043-.24.044-.24.047-.25.049-.24.051-.24.053-.24.055-.24.058-.24.059-.24.061-.24.064-.24.065-.23.068-.24.069-.24.072-.24.073-.24.076-.23.077-.24.08-.23.081-.24.084-.24.085-.23.088-.23.089-.24.092-.23.093-.23.095-.23.097-.23.099-.24.102-.22.102-.23.105-.23.106-.23.109-.23.111-.22.112-.23.114-.23.116-.22.118-.22.119-.22.122-.23.123-.22.125-.22.127-.22.128-.21.131-.22.132-.22.133-.21.136-.22.138-.21.138-.21.14-.21.143-.21.144-.21.146-.21.146-.21.149-.2.151-.21.152-.2.153-.2.155-.2.157-.2.158-.2.16-.2.162-.2.162-.19.164-.2.166-.19.168-.19.169-.19.169-.19.171-.18.173-.19.175-.18.175-.19.177-.18.179-.18.179-.17.182-.18.182-.18.182-.17.186-.17.186-.17.188-.17.188-.17.189-.17.192-.16.192-.16.193-.17.196-.15.195-.16.195-.16.199-.15.199-.16.199-.15.201-.15.204-.14.203-.15.202-.14.205-.15.207-.14.207-.14.208-.13.209-.14.21-.13.21-.13.212-.13.213-.13.213-.13.213-2.96 5.138-3.28 5.678-7.15 12.39-7.49 13.002-7.32 12.696-6.61 11.473-5.38 9.332-4.93 8.549-.28.494-.11.197-.12.222-.12.221-.11.22-.12.223-.11.224-.11.226-.11.226-.11.226-.1.229-.11.229-.1.228-.1.233-.09.231-.1.231-.09.235-.1.234-.09.235-.08.236-.09.235-.08.239-.09.238-.08.239-.08.24-.07.239-.08.243-.07.241-.07.243-.07.243-.07.242-.07.246-.06.245-.06.245-.06.247-.06.244-.05.249-.06.248-.05.248-.05.249-.05.247-.04.251-.05.25-.04.248-.04.251-.04.253-.04.251-.03.25-.03.252-.03.254-.03.252-.03.251-.02.253-.03.253-.02.253-.02.253-.01.254-.02.253-.01.254-.01.253-.01.254-.01.254v.507l-.01.252.01.253v.507l.01.253.01.256.01.25.01.253.02.253.01.252.02.252.02.25.02.253.03.251.03.249.02.251.03.252.04.249.03.248.04.249.03.248.04.248.05.245.04.247.05.249.04.246.05.243.05.244.06.245.05.243.06.243.06.24.06.243.06.241.07.238.06.24.07.238.07.238.08.237.07.236.08.235.07.233.08.234.09.233.08.232.08.231.09.23.09.229.09.227.09.227.1.226.09.226.1.224.1.223.1.223.11.219.1.22.11.22.11.218.11.216.11.215.12.227.05.094.06.107.06.107.06.106.06.106.05.094 45.03 78 .45.775.04.072.07.106.06.108.07.102.06.105.07.107.07.104.06.104.07.103.06.102.07.104.07.104.07.104.06.091.15.213.14.202.14.201.15.2.14.199.15.197.15.197.15.195.16.194.15.192.16.191.16.19.15.188.17.188.16.187.16.185.17.181.17.182.17.182.17.18.17.177.17.177.18.175.17.175.18.172.18.171.18.17.19.168.18.167.19.166.18.164.19.162.19.162.19.16.19.158.2.156.19.156.2.154.19.152.2.151.2.149.21.148.2.146.2.145.21.142.2.142.21.14.21.138.21.137.21.135.21.134.21.132.22.13.21.128.22.127.22.125.22.124.21.122.22.119.23.119.22.117.22.115.23.113.22.112.23.11.22.108.23.106.23.105.23.103.23.1.23.1.23.097.23.096.23.093.24.092.23.09.24.089.23.086.24.085.24.082.23.081.24.079.24.077.24.076.24.073.24.071.24.07.24.068.24.065.25.064.24.062.24.06.25.058.24.056.24.054.25.052.24.051.25.048.24.046.25.044.24.043.25.04.25.038.24.037.25.034.25.033.24.03.25.028.25.027.25.024.24.023.25.02.25.018.25.017.24.014.25.012.25.011.25.008.25.006.24.004.26.002 2.5.003 6.91.005 4.78.004 5.48.003 6.08.002 6.54.001h6.87l7.08-.002 7.16-.004 7.12-.007 3.5-.004 3.44-.005 3.37-.006 3.28-.007 3.17-.008 3.05-.008 2.91-.01 2.68-.01.23-.004.25-.006.25-.009.25-.01.25-.013.24-.014.25-.017.25-.019.25-.021.25-.023.24-.025.25-.027.25-.03.25-.031.24-.033.25-.035.25-.038.24-.039.25-.042.24-.043.25-.046.24-.047.25-.05.24-.051.24-.053.25-.056.24-.057.24-.06.25-.061.24-.064.24-.064.24-.068.24-.069.24-.071.24-.074.23-.074.24-.077.24-.079.23-.081.24-.082.23-.085.24-.086.23-.088.24-.09.23-.092.23-.094.23-.096.23-.097.23-.099.23-.102.23-.103.23-.104.22-.107.23-.108.22-.11.23-.112.22-.113.22-.116.23-.117.22-.119.22-.12.21-.122.22-.125.22-.126.21-.126.22-.129.21-.131.21-.132.22-.134.21-.136.21-.137.2-.139.21-.141.21-.141.2-.143.2-.146.21-.147.2-.147.2-.151.2-.152.19-.152.2-.153.2-.157.19-.157.19-.159.19-.161.19-.162.19-.162.19-.165.19-.166.18-.167.18-.169.18-.171.18-.171.18-.173.18-.174.17-.175.18-.177.17-.179.17-.179.17-.181.17-.182.17-.183.16-.185.17-.186.16-.187.16-.188.16-.19.16-.191.15-.191.15-.194.16-.194.15-.195.14-.196.15-.198.15-.201.14-.2.14-.199.15-.203.14-.204.13-.203.14-.206.13-.207.13-.208.13-.208.13-.209.13-.212.12-.214 2.83-4.89 2.85-4.933 2.85-4.931 2.86-4.93 5.71-9.856 2.85-4.927 2.85-4.926 2.85-4.925 2.85-4.926 2.84-4.927 1.42-2.462 1.42-2.464 1.42-2.463 1.42-2.464 1.42-2.464 1.41-2.464 1.42-2.465 1.41-2.465 1.41-2.466 1.38-2.402.11-.196.12-.217.11-.22.12-.222.11-.219.11-.224.11-.223.11-.223.11-.225.1-.225.1-.225.1-.229.1-.226.09-.227.1-.23.09-.23.09-.229.09-.231.08-.232.09-.231.08-.235.08-.232.08-.234.07-.235.08-.233.07-.238.07-.237.07-.237.07-.237.06-.236.06-.238.06-.241.06-.239.06-.24.06-.24.05-.241.05-.243.05-.241.05-.241.04-.244.04-.242.04-.243.04-.243.04-.243.04-.245.03-.246.03-.246.03-.244.03-.244.03-.247.02-.244.02-.245.02-.249.02-.247.02-.245.01-.246.01-.247.01-.248.01-.247.01-.248V497.437l-.01-.248v-.247l-.01-.247-.01-.247-.02-.247-.01-.249-.02-.247-.02-.244-.02-.248-.02-.249-.03-.243-.02-.246-.03-.247-.03-.245-.04-.247-.03-.245-.04-.244-.04-.246-.03-.243-.05-.245-.04-.243-.05-.242-.05-.246-.05-.242-.05-.241-.05-.242-.06-.242-.05-.242-.06-.239-.06-.238-.07-.24-.06-.241-.07-.239-.07-.236-.07-.236-.07-.239-.07-.236-.08-.234-.08-.237-.08-.234-.08-.232-.09-.235-.08-.232-.09-.23-.09-.232-.09-.232-.09-.229-.1-.227-.09-.227-.1-.229-.1-.227-.1-.226-.11-.224-.1-.223-.11-.223-.11-.223-.12-.223-.11-.219-.11-.221-.12-.218-.12-.217-.12-.219-.12-.215-.35-.601-44.94-77.844-.18-.308-.12-.197-.13-.217-.13-.216-.14-.216-.14-.215-.14-.214-.14-.213-.14-.211-.15-.211-.15-.21-.14-.208-.16-.207-.15-.207-.15-.205-.16-.204-.15-.203-.16-.201-.16-.2-.16-.2-.17-.197-.16-.198-.17-.195-.17-.194-.17-.194-.17-.192-.17-.189-.18-.189-.17-.189-.18-.186-.18-.185-.18-.184-.18-.182-.18-.181-.19-.18-.18-.179-.19-.175-.19-.176-.19-.174-.19-.172-.19-.171-.19-.169-.2-.167-.19-.167-.2-.164-.2-.163-.2-.162-.2-.16-.2-.158-.2-.157-.21-.156-.2-.152-.21-.152-.21-.151-.2-.147-.21-.148-.21-.145-.21-.143-.21-.142-.22-.14-.21-.138-.22-.136-.21-.135-.22-.133-.22-.131-.21-.129-.22-.128-.22-.125-.23-.124-.22-.122-.22-.121-.22-.118-.22-.116-.23-.115-.22-.112-.23-.112-.23-.109-.22-.106-.23-.106-.23-.103-.23-.101-.23-.1-.22-.096-.23-.096-.24-.094-.23-.091-.23-.09-.23-.087-.23-.085-.24-.084-.23-.082-.23-.079-.24-.078-.23-.075-.23-.074-.24-.071-.23-.069-.24-.068-.23-.065-.24-.063-.24-.062-.23-.059-.24-.057-.24-.055-.23-.053-.24-.051-.24-.048-.24-.047-.23-.045-.24-.042-.24-.041-.24-.038-.25-.038-.1-.016-.12-.016-.12-.017-.12-.015-.12-.016-.12-.014-.12-.014-.11-.014-.12-.013-.12-.013-.12-.012-.12-.011-.12-.011-.12-.011-.12-.01-.12-.009-.12-.009-.11-.008-.12-.008-.12-.007-.12-.007-.12-.006-.12-.005-.12-.006-.11-.004-.13-.004-.11-.004-.12-.003-.12-.002-.12-.002-.12-.001-.11-.001h-.47l-84.7-.021-.18.003zm540.19-412.096L1833.4 607h375.25l1.03-631.829-11.92.731zm-337.77 483.091l-245-424.353 39.05-67.627 491.25-2.167-285.3 494.147zM1660.98-21.018l-32.13 55.658 231.14 400.353 264.46-458.055-463.47 2.044zm84.01 358.767h-305l152.5-264.138 152.5 264.138zm-284.21-12h263.43L1592.49 97.611l-131.71 228.138z" fill="url(#_Linear3)" transform="matrix(.433 0 0 .433 -206.6 177)"/></g></g><defs><radialGradient id="_Radial2" cx="0" cy="0" r="1" gradientUnits="userSpaceOnUse" gradientTransform="translate(1964.33 -187.942) scale(1187.94)"><stop offset="0" stop-color="#f9a6ff"/><stop offset="1" stop-color="#ea73ff"/></radialGradient><linearGradient id="_Linear3" x2="1" gradientUnits="userSpaceOnUse" gradientTransform="matrix(0 1000 -1000 0 1892.5 0)"><stop offset="0" stop-color="#f7b3ff"/><stop offset="1" stop-color="#ee8aff"/></linearGradient></defs></svg>