<svg xmlns="http://www.w3.org/2000/svg" viewBox="0 0 14 14">
    <path d="m 12.816862,8.6991205 c -0.355549,-0.380587 -1.083672,-0.599424 -2.115263,-0.599424 -0.550849,0 -1.1893342,0.05508 -1.882904,0.185286 C 8.4270909,7.8993875 8.0364884,7.4486925 7.6634129,6.9228805 7.3980035,6.5523095 7.1661459,6.1617065 6.952316,5.7761125 c 0.407128,-1.271962 0.6039316,-2.308561 0.6039316,-3.054712 0,-0.837292 -0.3019658,-1.710639 -1.1718075,-1.710639 -0.2669118,0 -0.5338235,0.162751 -0.6760429,0.400618 -0.3921048,0.705087 -0.2153321,2.24997 0.4592084,3.775824 -0.2518886,0.761174 -0.5182995,1.488797 -0.8513132,2.306057 -0.2894465,0.689063 -0.6229609,1.399159 -0.9629854,2.051164 -1.9550157,0.7932245 -3.2199669,1.7196525 -3.33865,2.4457735 -0.0520803,0.273922 0.037057,0.525811 0.2288531,0.72612 0.066603,0.05509 0.3184912,0.272921 0.7411432,0.272921 1.2970006,0 2.6641094,-2.143306 3.3586808,-3.4352995 0.5333227,-0.180278 1.0666454,-0.344031 1.5989665,-0.508284 0.5849022,-0.16175 1.1718075,-0.29195 1.7051302,-0.383091 1.3696122,1.253934 2.5769742,1.4522405 3.1839112,1.4522405 0.747152,0 1.013563,-0.3089765 1.103201,-0.5618675 0.140217,-0.325502 0.03505,-0.686058 -0.126194,-0.871344 l 0.01001,0.02003 z m -0.69357,0.527815 c -0.05208,0.27242 -0.319493,0.453699 -0.694071,0.453699 -0.105162,0 -0.195301,-0.01853 -0.301965,-0.03606 -0.681051,-0.162751 -1.3185339,-0.508785 -1.9545149,-1.054627 0.6259656,-0.107165 1.1567849,-0.125193 1.4923019,-0.125193 0.370571,0 0.691066,0.01602 0.906398,0.07211 0.245378,0.05308 0.635981,0.217836 0.548346,0.691066 l 0.01002,0 z M 8.3559812,8.3721165 c -0.4607106,0.09515 -0.9584785,0.20732 -1.4742741,0.347035 -0.4086303,0.111673 -0.8342869,0.237366 -1.2619466,0.385595 0.2318577,-0.451697 0.4276597,-0.88837 0.6049331,-1.303511 0.2143307,-0.510788 0.3906026,-1.036599 0.5683768,-1.525353 0.1752703,0.305472 0.3705716,0.615951 0.5658729,0.891375 0.3204943,0.435672 0.6560119,0.851314 0.9915294,1.21187 l 0,-0.01002 z M 6.0273893,1.6191995 c 0.072612,-0.145224 0.2153322,-0.218336 0.3395237,-0.218336 0.3730755,0 0.4441852,0.43467 0.4441852,0.781205 0,0.584902 -0.1772735,1.473272 -0.4807416,2.487336 C 5.7985363,3.2572265 5.7619799,2.0754035 6.0283908,1.6197005 Z M 4.0733752,10.080753 c -0.9063982,1.52385 -1.7767407,2.47031 -2.3100633,2.47031 -0.1051623,0 -0.193799,-0.03756 -0.2654094,-0.09164 C 1.3907372,12.351255 1.3376553,12.223057 1.3737109,12.078835 1.4803754,11.532993 2.4934381,10.770316 4.073876,10.080753 Z" fill="#EF4642"/>
</svg>
