<?xml version="1.0" encoding="UTF-8" standalone="no"?>
<!DOCTYPE svg PUBLIC "-//W3C//DTD SVG 1.1//EN" "http://www.w3.org/Graphics/SVG/1.1/DTD/svg11.dtd">
<svg width="100%" height="100%" viewBox="0 0 1024 1024" version="1.1" xmlns="http://www.w3.org/2000/svg" xmlns:xlink="http://www.w3.org/1999/xlink" xml:space="preserve" xmlns:serif="http://www.serif.com/" style="fill-rule:evenodd;clip-rule:evenodd;stroke-linejoin:round;stroke-miterlimit:2;">
    <g id="Publisher">
        <g transform="matrix(0.930556,0,0,0.930556,31.5556,33.4722)">
            <path d="M136,910L931,910L1016,765L619,77L573,77L560,54L401,54L327,183L327,184L358,237L358,238L202,505L109,559L8,735L8,736L87,872L114,872L136,910Z" style="fill:rgb(44,44,44);"/>
        </g>
        <g transform="matrix(0.930556,0,0,0.930556,31.5556,33.4722)">
            <path d="M318.969,237.509L293.052,193.199L293.052,173.954L381.337,20.052L579.807,20.052L592.807,43.052L638.605,43.052L1055.27,765.135L950.45,943.948L116.427,943.948L94.427,905.948L67.46,905.948L-25.948,745.144L-25.948,725.951L84.085,534.211L177.207,480.14L318.969,237.509ZM136,910L931,910L1016,765L619,77L573,77L560,54L401,54L327,183L327,184L358,237L358,238L202,505L109,559L8,735L8,736L87,872L114,872L136,910Z" style="fill:rgb(247,134,66);"/>
        </g>
        <path d="M344.281,513.259L521.385,819.237L166.849,819.237L344.281,513.259ZM519.405,211.261L563.905,134.523L918.147,745.141L828.42,745.14L519.405,211.261ZM508.685,229.748L807,745.14L718.816,745.139L464.552,305.854L508.685,229.748ZM453.832,324.341L697.395,745.139L609.52,745.138L409.854,400.18L453.832,324.341ZM399.134,418.667L588.099,745.138C588.099,745.138 539.462,745.137 514.43,745.137C505.446,745.137 497.144,740.35 492.644,732.575C467.897,689.82 387.106,550.239 362.307,507.394C357.788,499.588 357.792,489.96 362.317,482.157C374.86,460.527 399.134,418.667 399.134,418.667Z" style="fill:rgb(247,134,66);"/>
    </g>
</svg>
