<svg xmlns="http://www.w3.org/2000/svg" aria-hidden="true" viewBox="0 0 14 14">
  <path fill="#DB398D" d="M1 1v12h12V1H1zm4.3125 8.5915h-.9742V4.2527h.9742v5.3388zm3.4775 0l-.0395-.6095H8.735c-.23.4275-.6972.697-1.2597.697-.9188 0-1.6475-.7843-1.6475-1.9728-.008-1.291.8002-2.0595 1.7272-2.0595.5308 0 .9107.2218 1.085.507h.016V3.9675h.974v4.539c0 .3962.016.824.0318 1.0852H8.79zm-.998-3.192c-.626 0-.9742.5543-.9742 1.2755 0 .7047.3482 1.22.9665 1.22.3964 0 .7447-.2695.8397-.6892.024-.0873.0317-.1823.0317-.2855v-.578c0-.0795-.0082-.1745-.024-.254-.0872-.38-.396-.6888-.8397-.6888z"/>
</svg>
