<svg xmlns="http://www.w3.org/2000/svg" aria-hidden="true" viewBox="0 0 14 14">
  <path fill="#5F388B" d="M7.6994 3.3538C6.4025 4.6507 5.3116 5.7071 5.26 5.7071c-.043 0-.7556-.5237-1.5717-1.1594L2.211 3.3883l-1.2023.6012v6.0125l1.2023.6012 1.3659-1.065c.7561-.5927 1.4517-1.1249 1.5462-1.1854.172-.103.3433.0515 2.5682 2.2679L10.0707 13l1.4603-.5927 1.4602-.5842V2.1684l-1.1164-.4468c-.6097-.2493-1.2713-.5067-1.4687-.5842L10.0537 1 7.7004 3.3533zm2.3278 3.6422c0 1.3229-.017 2.4048-.0515 2.4048-.1204 0-3.0404-2.3533-3.015-2.4308.026-.0944 2.903-2.3708 3.0065-2.3708.0345-.0085.0605 1.0735.0605 2.3963zm-6.8286-.859l.8591.859-.859.8591c-.4723.4722-.8846.859-.9191.859-.043 0-.069-.773-.069-1.7175 0-.9446.0255-1.7182.069-1.7182.0345 0 .4468.3868.919.859z"/>
</svg>
