<svg xmlns="http://www.w3.org/2000/svg" width="512" height="352" viewBox="0 0 512 352">
  <defs>
    <style>
      .cls-1 {
        fill: #fcf243;
      }

      .cls-1, .cls-2, .cls-3 {
        fill-rule: evenodd;
      }

      .cls-2 {
        fill: #1e5dba;
      }

      .cls-3 {
        fill: #afb6b8;
      }
    </style>
  </defs>
  <path id="Color_Fill_1" data-name="Color Fill 1" class="cls-1" d="M96,0c19.307-.525,32.429,12.344,32,29-0.091,3.516.428,8.281,0,9-3.846,9.221-9.457,10.9-16,17a36.475,36.475,0,0,1-9,0c0-.667-1-1.333-1-2-2.265-3.007-.7-9.01-2-13-2.266.4-1.084,0.918-3,0-1.989-2.66-1.94-7.285-5-9-0.771.682-2.232,1.311-3,2-3.057,3.635.644,12.714-2,17C79.235,38.6,73.506,38.031,76,18c2.2-4.413,4.906-9.068,9-12C88.338,3.609,90.133,1.366,96,0ZM402,5c29.324-.871,34.586,12.379,31,38-2.666,2.333-.9,4.456-8,7,0.094-5.953-.083-12.477-1-17-2.326-1.135-3.316-2.137-6-3-0.928,2.894-1.99,1.387-3,3-1.214,1.939,1.976,2.642,0,5-1.333.333-1.667,0.667-3,1-5.035,7.57,7.36,17.173-17,15-7.214-3.413-14.153-2.628-14-22,0.053-6.772.422-10.869,3-15,2.524-4.044,3.752-5.58,10-10C396.408,5.738,397.742,5.463,402,5ZM392,328h-9c-8.087-5.538-17.234-7.387-17-30,2.156-3.012,2.794-7.053,5-10,5.433-7.257,16.666-7.621,26-7,8.119,0.54,22.073,21.968,16,32-1.26,4.947-6.753,11.09-11,13-1.016-4.675-2.209-6.789-8-7l-1,3C392.039,323.418,392.024,325.273,392,328Zm-272,3c0.06-2.9.048-5.468-1-7-1.187-3.6-1.509-3.657-6-4a34.838,34.838,0,0,0-3,9h-1c-5.364-3.613-4.516,0-11-10-8.327-18.815,1.843-29.064,14-35,12.059-2.292,18.059,1.266,24,3l7,8C151.344,313.607,137.564,330.93,120,331Z"/>
  <path id="Color_Fill_2" data-name="Color Fill 2" class="cls-2" d="M239,69c54.068-.981,71.886,15.686,97,43,6.742,7.333,9.8,14.682,14,25,0.848,2.085,4.015,8.088,3,9-3.42,6.752-9.692,11.259-14,17a617.248,617.248,0,0,1-45,53c-3.846,4.077-16.876,19.16-21,21H239c-7.668-7.479-14.411-12.607-20-20-14.089-18.635-30.628-34.114-45-53-7.518-9.879-20.015-13.942-22-26,4.115-5.145,6.433-14.381,10-20,7.086-11.162,24.579-29.428,36-36l3,1c7.2-3.281,14.444-8.415,23-11C229.212,70.425,234.952,71.621,239,69Zm-91,88c9.1,6.526,17.22,20,24,29a37.851,37.851,0,0,1,7,9c7.715,5.662,8.99,9.977,17,18,4.911,4.919,16.093,17.133,20,23h-5l-47-4c-2.031-6.234-7.425-11.041-10-17C148.251,201.7,142.449,173.957,148,157Zm208,11c1.859,2.737,2.113,15.463,1,20-3.243,13.223-9.805,44.677-24,45-4.657,2.924-29.585,3.017-37,3v-1h1c4.938-7.514,13.689-11.978,19-19C328.545,199.413,344.712,185.667,356,168ZM184,253l52,2c1.938,3.035,6.986,4.324,8,8v1c-5.14,4.893-10.543,8.219-14,12C214.154,276.18,190.147,262.61,184,253Zm118,0h18c0,0.333-1,1.667-1,2-11.29,7.239-22.257,18.481-39,20-3.208-4.855-8.538-7.524-12-12,2.8-1.841,5.268-6.77,8-8C283.556,251.6,288.143,253.544,302,253Zm-49,21h6c0.952,1.577,3.633,3,2,4C249.565,280.521,248.034,279.436,253,274Z"/>
  <path id="Color_Fill_3" data-name="Color Fill 3" class="cls-3" d="M128,25c8.567,1.2,15.729,7.165,22,11,10.421,6.373,20.219,11.125,30,18,9.938,6.985,18.517,16.557,29,23v2c-3.241.815-7.743,3.99-9,3-4.56-1.515-6.506-5.558-10-8a98.167,98.167,0,0,1-8-6c-12.132-10.469-35.774-28.5-54-31V25Zm253,2V38c-16,3.955-40.192,21.792-53,31-6.572,4.725-13.112,12.435-21,17-1.845-2.416-6.535-3.227-8-6,7.809-4.572,14.836-12.836,22-18,12.1-8.721,24.041-15.98,37-24C364.722,33.84,371.244,28.014,381,27Zm18,84c13.4,0.074,26.291,5.468,37,9,30.417,10.033,76.589,21.374,76,61-6.635,6.981-8.265,18.1-16,24-26.693,20.346-83.537,41.383-128,43,1.889,10.81,14.209,20.893,18,33h-2a18.236,18.236,0,0,1-8,3c-1.1-4.76-17.091-32.637-20-34h-9c-4.69,2.894-14.1.639-20,2-14.618,3.37-29.766,1.6-51,3a28.3,28.3,0,0,1-8,8v1h1c20.224,21.188,48.457,40.127,74,56,12.711,7.9,24.577,16.759,45,17,2.649-4.423,3.759-10.68,5-17a18.324,18.324,0,0,1,6-1c1.991,5.958,5.654,5.812,6,14-4.1,6.472-3.082,13.293-11,16-12.548,8.75-36.686-3.118-46-8-22.638-11.865-42.218-25.348-62-40a244.509,244.509,0,0,1-25-21c-2.665-2.642-1.8-4.444-6-6-6.968,10.4-18.961,17.571-29,25-21.675,16.04-42.762,33.106-68,46-6.772,3.46-30.933,10-40,4-6.457-1.953-10.5-9.23-11-17,3.543-4.311,2.635-11.2,10-12,1.919,3.742,2.854,14.178,7,16,6.568,4.271,30.4-6.29,35-9a427.586,427.586,0,0,0,53-37c2.346-1.916,16.247-12.579,14-14,8.4-3.56,12.485-6.97,18-13-2.712-1.848-5.324-6.809-8-8H208c-11.762.948-33.826-4.839-52-5-6.814,12.7-15.348,24.007-22,37-1-.166-16.5-2.32-19-4,3.09,0.094,6.33.14,8-1l21-33c-13.943-4.5-29.368-3.954-44-8-23.143-6.4-49.282-15.534-68-27C17.374,205.041-.307,194.4,0,171c3.634-4.01,3.838-11.588,7-16,8.588-11.984,29.5-22.371,44-28,13.574-5.269,28.258-9.069,42-13,6.286-1.8,12.759-1.053,20-5-2.675-4.783-3.738-9.573-7-15C96.843,78.767,83.153,58.17,88,33a15.7,15.7,0,0,1,5-1,77.388,77.388,0,0,1,4,8c2.906-.058,1.389-0.964,3,0,2.373,4.117,1.229,11.691,3,16,5.006,12.183,11.652,23.8,18,34,3.978,6.389,2.027,7.245,11,17,7.422-2.735,33.546-4.99,43-5v1c-5.484,3.953-4.406,9.742-14,10-5.681,3.411-19.627,4.409-24,6,3.982,5.069,6.563,9.126,10,14,5.1,7.227,20.518,24.451,27,31,18.4,18.584,25.06,30.152,43,49,4.421,4.645,17.217,21.863,22,24h34c6.805-10.364,17.646-17.27,25-27,15.411-20.391,33.85-36.535,49-57,7.922-10.7,21.284-21.606,26-35-12.841-.819-20.988-4.849-36-5-2.678-4.19-9.458-6.661-11-12h10l45,6c8.016-13.939,18.273-26.441,25-42,1.5-3.46,3.1-8.154,4-11q0.5-7.5,1-15c2.7-4.1,4,1.211,4-6,2.918-1.051,2.346-1.818,5-3,1.664,2.2,2.836,2.026,4,5,4.695,7.212-1.181,21.192-3,26-4.124,10.9-6.642,21.785-11,30C406.605,97.4,400.389,102.689,399,111ZM118,121c-7.5,4.97-19.844,4-29,7-23.843,7.814-72.5,21.126-72,51,2.825,2.829,4.16,7.19,7,10,7.839,7.756,19.055,11.274,30,16,28.407,12.266,65.709,23.93,104,25q1-2,2-4a2.834,2.834,0,0,1,1,1c3.122,3.195,2.285,4.86,9,5,8.708,0.687,36.695,3.643,46,4v-1c-8.079-5.405-15.142-14.247-21-22-6.741-8.921-16.236-18.026-23-27-8.629-11.448-17.436-20.217-26-32-7.634-10.5-20.529-19.454-25-33h-3Zm273,0c-17.2,34.888-49.738,65.993-75,95-6.09,6.993-14.732,12.148-20,20h9c3.775-2.365,27.174-3.9,33-4,3.875-3.058,5.806-6.77,8-11h2c1.826,6.246,5.224,9.291,14,9,10.909-.121,29.756-3.847,41-7,23.5-6.588,46.882-12.514,66-23,10.173-5.58,24.949-10.5,25-26,0.829-1.66.238-2.585,0-6-6.528-5.079-10.828-13.213-18-18C453.251,134.818,421.641,127.815,391,121Z"/>
</svg>
