<svg role="img" focusable="false" aria-hidden="true" xmlns="http://www.w3.org/2000/svg" viewBox="0 0 14 14"><path d="m 1.000125,1 0,12 11.99975,0 0,-12 -11.99975,0 z m 6.19975,8.0185 c -0.40825,0.35725 -1.0795,0.53575 -2.125,0.53575 -0.578,0 -1.02,-0.0425 -1.2835,-0.07675 l 0,-5.635 c 0.3315,-0.068 0.935,-0.119 1.52125,-0.119 0.7735,0 1.2495,0.0935 1.6405,0.36525 0.357,0.2125 0.59475,0.5865 0.59475,1.071 0,0.527 -0.3315,1.01125 -0.95175,1.24075 l 0,0.017 c 0.60375,0.15275 1.156,0.629 1.156,1.4195 0,0.51025 -0.22125,0.9095 -0.55225,1.1815 z m 3.61225,-2.745 c -0.085,-0.017 -0.17875,-0.034 -0.30625,-0.034 -0.5015,0 -0.84125,0.323 -0.9345,0.79025 -0.017,0.0935 -0.03425,0.204 -0.03425,0.323 l 0,2.14175 -1.0455,0 0,-2.8045 c 0,-0.561 -0.00825,-0.9605 -0.03425,-1.33425 l 0.90975,0 0.03425,0.7905 0.03375,0 c 0.204,-0.5865 0.6885,-0.884 1.13025,-0.884 0.102,0 0.1615,0.0085 0.2465,0.0255 l 0,0.98575 z m -5.46525,0.595 -0.5185,0 0,1.86975 c 0.136,0.01675 0.3145,0.0255 0.55225,0.0255 0.6715,0 1.26625,-0.255 1.26625,-0.9605 2.5e-4,-0.66275 -0.57775,-0.93475 -1.3,-0.93475 z M 6.494125,5.279 c 0,-0.5355 -0.408,-0.782 -1.071,-0.782 -0.306,0 -0.4845,0.017 -0.59475,0.0425 l 0,1.56375 0.5355,0 C 6.086125,6.1035 6.494125,5.7635 6.494125,5.279 Z" fill="#4A3D18"/></svg>