<svg xmlns="http://www.w3.org/2000/svg" aria-hidden="true" viewBox="0 0 14 14">
  <path fill="#4A3D18" d="M1.0001 1v12H13V1H1zM7.2 9.0185c-.4083.3573-1.0795.5357-2.125.5357-.578 0-1.02-.0425-1.2835-.0767v-5.635c.3315-.068.935-.119 1.5212-.119.7735 0 1.2495.0935 1.6405.3652.357.2125.5948.5865.5948 1.071 0 .527-.3315 1.0113-.9518 1.2408v.017c.6038.1527 1.156.629 1.156 1.4195 0 .5102-.2212.9095-.5522 1.1815zm3.6122-2.745c-.085-.017-.1787-.034-.3062-.034-.5015 0-.8413.323-.9345.7903-.017.0935-.0343.204-.0343.323v2.1417H8.4916V6.69c0-.561-.0082-.9605-.0342-1.3342h.9097l.0343.7905h.0337c.204-.5865.6885-.884 1.1303-.884.102 0 .1615.0085.2465.0255v.9857zm-5.4652.595h-.5185v1.8697c.136.0168.3145.0255.5522.0255.6715 0 1.2663-.255 1.2663-.9605.0002-.6627-.5778-.9347-1.3-.9347zM6.494 5.279c0-.5355-.408-.782-1.071-.782-.306 0-.4845.017-.5947.0425v1.5637h.5355c.7222.0003 1.1302-.3397 1.1302-.8242z"/>
</svg>
