<?xml version="1.0" encoding="UTF-8"?>
<svg enable-background="new 0 0 606.6 524.8" viewBox="0,0,606.6,524.8" xmlns="http://www.w3.org/2000/svg">
 <path d="m133.3 148.1v-99.1c0-23.9 16.5-39.8 40.1-39.8h237.7c7.8 0 14.5 2.3 20 7.9l60.1 61.3c5.5 5.7 7.7 13.2 7.7 21.1v189.3l9.4-.1v-194c0-8.3-3.2-16.1-9-22l-63.4-63.6c-5.8-5.8-13.8-9.1-22-9.1h-244.5c-24.8 0-45 20.2-45 45v107.4zm-8.9 199.9v131.9c0 24.8 20.2 45 45 45h57.2v-9.2h-53.2c-23.5 0-40.1-16-40.1-39.8v-123.7z"/>
 <path d="m476.9 87.4h-55.4v-57.9c0-4.3 0-7.7-4.2-7.7-4.3 0-4.2 3.5-4.2 7.7v58.6c0 4.3 3.4 7.7 7.7 7.7h56.1c4.3 0 7.7.1 7.7-4.2s-3.5-4.2-7.7-4.2z"/>
 <path d="m271.9 363.3c-13.8 0-16.7 5.9-16.7 10.8v61.1c0 4.9 2.9 10.8 16.7 10.8s16.7-5.9 16.7-10.8v-61.1c0-4.9-2.9-10.8-16.7-10.8zm-7.9 13.8c0-4.8 2.4-6.9 7.9-6.9s7.9 2.1 7.9 6.9v55.2c0 4.8-2.4 6.9-7.9 6.9s-7.9-2.1-7.9-6.9z" fill="#231f20"/>
 <path d="m314.4 304.2h-8.9v49.3h-5.9v6.9h5.9v95.5h8.9v-95.5h13.8v-6.9h-13.8z" fill="#231f20"/>
 <path d="m348.9 363.3c-13.8 0-16.7 5.9-16.7 10.8v61.1c0 4.9 2.9 10.8 16.7 10.8s16.7-5.9 16.7-10.8v-9.8h-8.9v6.9c0 4.8-2.4 6.9-7.9 6.9s-7.9-2.1-7.9-6.9v-16.7c2.2.6 4.8.9 7.9.9 13.8 0 16.7-5.9 16.7-10.8v-31.5c.1-5-2.8-10.9-16.6-10.9zm-7.9 13.8c0-4.8 2.4-6.9 7.9-6.9s7.9 2.1 7.9 6.9v25.6c0 4.8-2.4 6.9-7.9 6.9s-7.9-2.1-7.9-6.9z" fill="#231f20"/>
 <path d="m395.9 363.3c-13.8 0-16.7 5.9-16.7 10.8v109.3h8.9v-38.3c2.2.6 4.8.9 7.9.9 13.8 0 16.7-5.9 16.7-10.8v-61.1c0-4.9-2.9-10.8-16.8-10.8zm-7.8 13.8c0-4.8 2.4-6.9 7.9-6.9s7.9 2.1 7.9 6.9v55.2c0 4.8-2.4 6.9-7.9 6.9s-7.9-2.1-7.9-6.9z" fill="#231f20"/>
 <path d="m443 363.3c-13.8 0-16.7 5.9-16.7 10.8v9.8h8.9v-6.9c0-4.8 2.4-6.9 7.9-6.9s7.9 2.1 7.9 6.9v16.7c-2.2-.6-4.8-.9-7.9-.9-13.8 0-16.7 5.9-16.7 10.8v31.5c0 4.9 2.9 10.8 16.7 10.8s16.7-5.9 16.7-10.8v-61.1c0-4.8-3-10.7-16.8-10.7zm-7.9 43.3c0-4.8 2.4-6.9 7.9-6.9s7.9 2.1 7.9 6.9v25.6c0 4.8-2.4 6.9-7.9 6.9s-7.9-2.1-7.9-6.9z" fill="#231f20"/>
 <path d="m498.7 364.2c-2.2-.6-4.8-.9-7.9-.9-13.8 0-16.7 5.9-16.7 10.8v61.1c0 4.9 2.9 10.8 16.7 10.8s16.7-5.9 16.7-10.8v-131h-8.9v60zm-15.7 12.9c0-4.8 2.4-6.9 7.9-6.9s7.9 2.1 7.9 6.9v55.2c0 4.8-2.4 6.9-7.9 6.9s-7.9-2.1-7.9-6.9z" fill="#231f20"/>
 <path d="m530.3 363.3h-8.9v19.7h-9.9v6.9h9.9v19.7h8.9v-19.7h9.8v-6.9h-9.8z" fill="#231f20"/>
 <path d="m562.8 383v-19.7h-8.9v19.7h-9.9v6.9h9.9v19.7h8.9v-19.7h9.8v-6.9z" fill="#231f20"/>
 <path d="m234.4 304.2c-13.8 0-16.7 5.9-16.7 10.8v185.5h8.9v-182.5c0-4.8 2.4-6.9 7.9-6.9s7.9 2.1 7.9 6.9v128h8.9v-131c-.1-4.9-3-10.8-16.9-10.8z" fill="#231f20"/>
 <path d="m129.4 159.4c8.5-8.4 20.7-10.7 31.8-14.2 12.7-.7 25.4 3.2 36.9 8.5 5 2 4.7 7.9 5.8 12.4-3.6.8-7.2 1.5-10.8 2.4 1.6-2.5 3.1-4.9 4.6-7.4-.1-2.4-2.9-3.3-4.3-5l-5.7 3.9-3.9-3.3c-3.5.5-7.3 1-10.6-.9-5.6-2.5-11.6-4.4-17.8-3.8-2.8 1.2-5 3.4-7.3 5.3 0-1 .1-3 .1-4-1.3 1.5-2.6 3-3.8 4.6-8.6.9-12.6 9.8-10.7 17.5-1.8 1.4-3.7 2.9-5.5 4.3 2-3.9 3.7-8.2 1.4-12.4-6.4 1.9-6.9 8.9-9.8 13.9-3 5.5-8.1 9.7-10.5 15.5-.2 3.2.3 6.3.6 9.5-2.4-.7-4.8-1.3-7.1-2 6-16.3 13.3-33.1 26.6-44.8z" fill="#90e59a"/>
 <path d="m148.1 157.4c2.4-1.9 4.5-4.2 7.3-5.3 6.2-.6 12.2 1.3 17.8 3.8-.8 3.5-2 6.9-3.6 10.1-4.8-2.5-9.6-5.2-14.1-8.1l2.7 5.4c-1 1.4-2.1 2.7-3.1 4.1-2-2.6-4-5.2-5.9-7.9-.7 3.9-3.6 6.8-7.6 4.6.9-2.1 1.8-4.1 2.7-6.1 1.2-1.6 2.5-3.1 3.8-4.6.1.9 0 2.9 0 4z" fill="#5cce74"/>
 <path d="m173.2 155.8c3.3 1.9 7 1.4 10.6.9l3.9 3.3 5.7-3.9c1.3 1.7 4.2 2.6 4.3 5-1.4 2.5-3 5-4.6 7.4-.9.2-2.7.6-3.5.9 1.8 2.2 3.6 4.4 5.4 6.5-7.6.4-13.1-4.8-18.9-8.6-5.3.8-9.1 6.5-14.6 7.1-2.7-1.2-5.2-2.8-7.7-4.4-.9 2.9-1.5 5.9-3.2 8.4-2.5 1.7-5.7 1.7-8.6 2.5.1 1.3.3 2.7.4 4-3.1-3-6.9-5.8-11.3-3.8 3.2 3.3-1.6 4.6-3.8 6.1-4.3 2.4-9.1 5.5-9.6 10.9-1.2 3.1.1 7.9-3.4 9.6-4.1 1.1-8.3.4-12.4.3.3-1 .8-2.9 1.1-3.9 2.4.7 4.8 1.3 7.1 2-.4-3.2-.9-6.3-.6-9.5 2.4-5.8 7.5-10 10.5-15.5 2.9-5 3.4-12 9.8-13.9 2.3 4.2.6 8.5-1.4 12.4 1.8-1.5 3.6-2.9 5.5-4.3-1.9-7.7 2.1-16.6 10.7-17.5-.9 2-1.8 4.1-2.7 6.1 3.9 2.2 6.9-.7 7.6-4.6 1.9 2.7 3.9 5.3 5.9 7.9 1-1.4 2-2.7 3.1-4.1l-2.7-5.4c4.6 2.9 9.3 5.5 14.1 8.1 1.3-3 2.5-6.4 3.3-10m-39.9 63.6c2.2.4 4.3.8 6.5 1.3-2.5 6.7-6 13.5-5.6 20.9 1.3 4.8 5.3 8.4 8.3 12.3-4.4 1.3-10.5.3-13.5 4.4-1.8 8 5.5 12.6 10.2 17.5-6.8-2.5-14.4-6.1-16.8-13.6 3.3-4.1 7.4-7.4 11.7-10.6-6.2-9.4-8.9-23.2-.8-32.2m69.3 16.9c1.6 1.4 3.3 2.8 4.9 4.1.2 2.7.4 5.5.5 8.2-2.8-3.6-5.3-7.5-5.4-12.3m42.6 2.1c1.7-2.4 4.6-2.2 6.4-.1 3.4 4.4 5.3 9.6 7.6 14.6 2.9.2 5.8.4 8.6.6-5.7 2.1-11.1 5.3-11.9 11.9-2.4-3.4 1.1-6.5 2.5-9.6-3.2-6.7-11-10.1-13.2-17.4m-81.6 4.3 1.7-.9c.3 4.5 2.4 9.7-.9 13.5-3.3-.3-6.5-.5-9.7-1.1 4.3-2.8 7.5-6.3 8.9-11.5m44.4 6c2.4 3.2 5.1 6 8.1 8.6 3.2-3.7 10.3-9.6 13.2-2.6-4.8 2.3-10.8 4-12.4 9.8 0 .2-.1.5-.1.7.7 5.1 2.6 10 4.1 14.9-11-7.1-4.4-22.4-12.9-31.4m59.8 1.4c4.7.5 9.7 1.6 13.3 5.1-4.5-.3-9.1-.1-13.3-1.7zm-11.8 25.8c5.7 2.5 11.3 5.2 17.3 7.2 3.4-1.4 8.2-8.9 11-3.4-4.4 4-10.5 8.1-16.7 6.7-4.8-2.3-7.9-6.9-11.6-10.5m-158.7.9c1.1.2 3.2.5 4.4.6 4.8 11.1 5 24 11.6 34.4 3.8 6.2 6.9 12.7 10.5 19 3.8 6.5 10.1 10.9 16 15.4 12.6 9.3 33.4 7.9 42.3-5.8 5.7-12.2-1.4-25.1-6.3-36.3-8.4-13.2-30.3-3.2-29.7 11.2-2.5-14.3 15.8-26.4 28-19.1 8.7 5.6 11.1 16.2 14.5 25.3 4 10.9-1.9 23.8-12.2 28.6-8 5.1-17.8 3.1-26.7 3.1-12.2-.6-20.1-10.5-28-18.4-7.7-9.4-12.7-20.6-18.7-31.2-3.2-8.5-5-17.6-5.7-26.8m64.8 36.6c1.4 1.6 2.5 3.4 3.9 5.1-3.4 4.4-8.9 4.2-13.8 3.5-2-2.2-4.1-4.4-6.1-6.6 4.8 2.9 10.2 8.8 16.2 5.1-.2-2.4-.2-4.7-.2-7.1z" fill="#75d66f"/>
 <path d="m161.3 174.4c5.5-.6 9.3-6.3 14.6-7.1 5.9 3.9 11.4 9 18.9 8.6-1.8-2.2-3.6-4.4-5.4-6.5.9-.2 2.7-.7 3.5-.9 3.6-.9 7.2-1.6 10.8-2.4.9 3.4 1.8 6.9 2.9 10.3-1.7 1.7-3.4 3.5-5.2 5.2 3.7 5.1 7.1 10.5 10.8 15.6 7.7-2.1 12.6 5.3 16 11.1-6.9-.4-14.7-.5-20.1-5.5-3.3-3-6.5-6.1-10-9l-6.3 1.8c-1.7-4.1-2.7-9.5-7.9-10.5.4 2.1.9 4.1 1.3 6.2-3.1 1.8-6.5 2.6-10 1.6 1.4-2.9 2.9-5.7 4.4-8.6-4.3-.4-6.8 3.3-9.2 6.2-.5-1.5-1-3-1.4-4.5-1.6-.2-3.1-.6-4.7-.7-2.3.5-3.2 3.8-5.7 3.9-4.1-.4-8-2.1-12.2-2.3-5 .7-9.7 2.9-14.6 4.3-1.6-1.3-3.3-2.6-4.9-3.9 2.2-1.6 7.1-2.8 3.8-6.1 4.5-2 8.2.8 11.3 3.8-.1-1.3-.3-2.7-.4-4 2.9-.7 6-.8 8.6-2.5 1.7-2.5 2.3-5.6 3.2-8.4 2.7 1.5 5.2 3.1 7.9 4.3z" fill="#8fe772"/>
 <path d="m201.5 181.6c1.7-1.7 3.4-3.5 5.2-5.2 1.7 5.1 3.9 10.3 8.2 13.7 7.2 5.5 14.7 11.5 23.7 13.6 8 1.5 16.8.6 23.7-4 6-5.4 8.8-13.3 15-18.5 5.8 2.9 12.3 4.2 17.9 7.5 5.8 3.7 8.6 10.3 12.1 16-3.8.7-7.5 1.5-11.3 2.3 1.4 2.4 2.9 4.9 4.4 7.3-1 1.5-2 3-2.9 4.6-1.9-3-3.7-6-5.5-9-4.1 1-8 2.6-11.5 4.8l1.2 5.7c-8.8-4.5-18.2 0-26.1 4.4-2.4 1.3-4.9 2.8-7.3 4.1-5-2.7-9.9-5.5-15.2-7.6-2.1 3.4-4.6 6.7-7.1 9.9-.9-2.6-1.9-5.2-2.7-7.9-.9.1-2.7.4-3.6.5-.4 3.7-.3 7.4.2 11.1-2.4-.3-4.9-.6-7.3-.9 1.1-5 2.4-9.9 3.4-15-1.2.1-3.7.3-4.9.4-4.1 6.3-4.3 13.9-3.5 21.2-1.7-1.4-3.3-2.8-4.9-4.1.2-5.2.9-10.3 1.3-15.5-5.4-2.3-7.6 3.9-8.6 7.9-3-1-6-1.9-8.9-3-6.7-2.1-11.1-8-17.6-10.6-3.4-1.4-5.9-4.2-8.5-6.7-.3 1-.9 3-1.1 4 2.6 4.4 2.6 10.1-2.5 12.8-1.6-.2-4.8-.6-6.5-.9 5.4 5.5 13.3 6.5 20.4 8.4l-4 2.8c-6.8-2.2-14.2-2.4-20.6-5.9-.2-2.6-.5-5.3-.7-7.9-1.9-.4-3.7-.7-5.6-1.1-2.2-.4-4.3-.8-6.5-1.3-1.6-1.9-3.4-5.2-6.3-3.5-2.3 2.1-4.2 4.6-6.4 6.9-1.3-1.8-2.7-3.6-4-5.4-9.8 1.2-9 13-15.3 18.3-4 2.9-3.8 8.4-7.5 11.6-.5-4.5-.8-8.9-.3-13.4 2-7.9 5.5-15.3 7.5-23.3.2-.6.5-1.9.7-2.6 4.1.2 8.4.8 12.4-.3 3.5-1.7 2.1-6.5 3.4-9.6.6-5.4 5.3-8.5 9.6-10.9 1.6 1.3 3.3 2.6 4.9 3.9 4.9-1.5 9.6-3.6 14.6-4.3 4.2.2 8.1 1.9 12.2 2.3 2.5-.1 3.3-3.4 5.7-3.9 1.6.1 3.1.5 4.7.7.5 1.5 1 3 1.4 4.5 2.5-2.9 4.9-6.6 9.2-6.2-1.5 2.9-2.9 5.7-4.4 8.6 3.5 1 6.9.1 10-1.6-.5-2.1-.9-4.1-1.3-6.2 5.2.9 6.2 6.3 7.9 10.5l6.3-1.8c3.4 2.9 6.7 6 10 9 5.4 5 13.2 5.1 20.1 5.5-3.3-5.7-8.3-13.2-16-11.1-3.7-5.1-7.2-10.5-10.9-15.6z" fill="#a9f37e"/>
 <path d="m296.1 207c3.8-.8 7.5-1.5 11.3-2.3 1.2 2.6 2.2 5.2 3.2 7.8-10.4 10.4-25.7 13.1-39.4 16.3-5.7 1.7-11-1.3-15.7-4 7.9-4.3 17.3-8.9 26.1-4.4l-1.2-5.7c3.6-2.2 7.5-3.8 11.5-4.8 1.8 3 3.7 6 5.5 9 .9-1.5 1.9-3.1 2.9-4.6-1.3-2.4-2.8-4.9-4.2-7.3z" fill="#87de71"/>
 <path d="m166 318.5c-1.4-1.6-2.5-3.5-3.9-5.1 0 2.4.1 4.7.2 7.1-6 3.7-11.4-2.2-16.2-5.1 2 2.2 4.1 4.3 6.1 6.6 4.9.7 10.4.9 13.8-3.5z" fill="none"/>
 <path d="m116.9 261.7c-3.7-4.3-10-2.3-15-3-5.4.3-14-.9-16.1 5.7 9.8.3 19.6.4 29.4.9.5-.9 1.3-2.7 1.7-3.6z" fill="none"/>
 <path d="m227.3 248.1c5.4 8.8 16 7.7 24.9 7.5-3.7-3.5-8.2-6.2-11.3-10.3-1.8-1.7-2.5-5.1-5.3-5.4-5.4.7-10.8 1.5-16.3 1.3h-.3-5.7c-.3 3.3-.3 6.6-.3 9.9 1.3.7 4 2.1 5.3 2.9 1.8-3.5 5.4-4.9 9-5.9z" fill="none"/>
 <path d="m82.3 258.6-.4-1.1c-.2.4-.5 1.2-.6 1.6l-1.1 1.3c-.2.2-.6.7-.7.9-2.6 2.2-2.1 5.6-2.4 8.6.4.7 1.3 2.2 1.7 3 4.5 2.7 3.6-7.2.5-7.4 1.9-2.3 4-4.5 4.6-7.5z" fill="none"/>
 <path d="m97.3 276.8c.7 9.1 2.5 18.3 5.6 26.9 6 10.5 11 21.7 18.7 31.2 8 7.9 15.9 17.8 28 18.4 8.9 0 18.8 2 26.7-3.1 10.3-4.8 16.2-17.7 12.2-28.6-3.4-9-5.9-19.7-14.5-25.3-12.2-7.3-30.5 4.8-28 19.1-.6-14.4 21.3-24.4 29.7-11.2 4.9 11.1 11.9 24.1 6.3 36.3-9 13.7-29.7 15.1-42.3 5.8-5.9-4.5-12.2-8.9-16-15.4-3.6-6.2-6.8-12.8-10.5-19-6.5-10.5-6.8-23.3-11.6-34.4-1.1-.2-3.2-.5-4.3-.7z" fill="none"/>
 <path d="m88.2 269.7c.3.7 1 2.1 1.4 2.8 10.7 1.1 21.4.3 32.1.3-.4-.5-1.2-1.4-1.7-1.9-10.6-.4-21.2-2.9-31.8-1.2z" fill="none"/>
 <path d="m251.6 238.3c-1.8-2.1-4.7-2.3-6.4.1 2.2 7.2 10 10.7 13.2 17.4-1.4 3-4.9 6.2-2.5 9.6.9-6.5 6.3-9.8 11.9-11.9-2.9-.2-5.8-.4-8.6-.6-2.3-5-4.3-10.2-7.6-14.6z" fill="none"/>
 <path d="m69.8 256.7c-1.1 2.5-2.4 5.1-3.7 7.5 1.1 3.2 2.8 6.2 4.8 8.9.6-.3 1.8-.8 2.3-1-4.3-5-.9-11 1.9-15.8-1.8.3-3.6.4-5.3.4z" fill="none"/>
 <path d="m281.1 255.2c-3.5-3.4-8.4-4.5-13.2-5h-.1v3.3c4.2 1.6 8.8 1.4 13.3 1.7z" fill="none"/>
 <path d="m127.6 249.9c-4.1-6.5-5.5-14.1-3-21.5-1.8.5-3.6.9-5.4 1.3-4 7.1-9.4 14.4-8.2 23 5.6 0 11.4-.1 16.6-2.8z" fill="none"/>
 <path d="m66.2 254.4c-3.4.6-6.8.7-10.2.2-2 3.5-4.6 6.7-8.2 8.7-3.6 2.2-2 7.3-1.4 10.7 6.4 1.2 13 .8 19.5 1.1-1.6-3.7-3.8-7.2-4.7-11.1-.5-4.1 4.8-5.7 5-9.6z" fill="none"/>
 <path d="m153.1 247.3c.4-2.3 1-4.7 1.5-7-3.7-3.5-9.3-3.4-13.9-4.7-1.3 6.3.1 12.6 3.8 17.8 2.7-2.1 5.5-4.4 8.6-6.1z" fill="none"/>
 <path d="m285.2 269.2c-9.8 1.7-19.8.5-29.6 1.8-10.5-2.1-21.2-2.4-31.9-1.6.1 1 .2 3 .3 4 10.5-.7 21.2.4 31.6-1.8 9.1 2 18.4 1.2 27.6.6 4.7-.5 9 2.4 13.6 1.9.9-6.4-7.6-4.6-11.6-4.9z" fill="none"/>
 <path d="m262.6 261.1c-.4.7-1.2 2.2-1.6 3 5.9 1.8 12.2.7 18.2 1.5 7.8 1.1 16.2 2 23.5-1.7-2.5-1.6-4.8-4-7.8-4.6-10.8-.6-21.6.8-32.3 1.8z" fill="none"/>
 <path d="m273.3 283.1c-5.9-2-11.6-4.6-17.3-7.2 3.7 3.6 6.8 8.2 11.5 10.5 6.2 1.4 12.3-2.7 16.7-6.7-2.7-5.5-7.5 2-10.9 3.4z" fill="none"/>
 <path d="m232.4 260.6c-2.4.6-7.6-.2-7 3.9 6.8.4 13.7.4 20.5.2 2.8.1 4-1.3 3.7-4.2-5.7 0-11.5-.3-17.2.1z" fill="none"/>
 <path d="m312.1 259c-.3 2.4-.5 4.8-.7 7.2-1 .6-2.9 1.8-3.8 2.5 0 2.2-.2 4.5-.3 6.7 8.3-.2 15.9-3.7 24-5.3 1.3-2.6.5-5.5.5-8.3-6.7-.6-13-3.1-19.7-2.8z" fill="none"/>
 <path d="m165.3 241.9-1.7.9c-1.4 5.2-4.6 8.7-8.9 11.5 3.2.6 6.4.8 9.7 1.1 3.3-3.9 1.2-9.1.9-13.5z" fill="none"/>
 <path d="m206.4 256.5c-1.9-4.7-3.7-9.9-7.8-13.1-8.7.4-17.4.1-26.1.4-1.1 4.1-2.5 8-3.3 12.2 12.3 1.1 24.8.6 37.2.5z" fill="none"/>
 <path d="m216.9 264.5c1.6-5.8 7.6-7.5 12.4-9.8-3-7.1-10-1.1-13.2 2.6-2.4-2.1-4.6-4.4-6.6-6.8 6.2 9.1 1.2 23 11.4 29.7-1.5-4.9-3.3-9.8-4.1-14.9z" fill="none"/>
 <path d="m155.1 264.6c6-1.8 11.7 2.2 17.7 2.2 11.5.3 23 .3 34.5-.2-.1-1.3-.3-4-.4-5.3-15.3 0-31.1-2.3-46 2-4.2-.1-8.1-2-12.2-2.7-2.8-3.8-10.1-1.1-14.7-2.2.7 2.1 1.3 4.3 1.9 6.4 3.7.1 7.5.2 11.2.2 2.4 2.6 5.4-.2 8-.4z" fill="none"/>
 <path d="m141.5 270.7c.9 1.2 1.8 2.5 2.7 3.7 3.6.1 7.3.2 10.9.4 17.3.1 34.5.4 51.8-.2.3-.6.9-1.7 1.3-2.2-17.7-1.2-35.4-1.4-53.1-1.7-4.5.1-9 .1-13.6 0z" fill="none"/>
 <path d="m220.5 183.6-.2 1.2c8.6 8.6 21.4 13.9 33.4 10.4 4.6-2.5 9.2-5.6 11.4-10.5 7.5-15.5 8.8-33.8 3.7-50.2-4.6-3.3-9-7.1-11.7-12.1-5.5-7.6-14.6-15.6-24.6-12-10.2 1.4-17.4 10.4-20.2 19.8-3.8 12-5.1 25.6.1 37.4 1 5.9 2.1 13.2 8.1 16zm19.2-29.5c2.2 6.5-1.4 15.5-9.4 15.6-3.6-2.5-8.6-4.8-7.8-10-1.4-9.6 11.6-9.3 17.2-5.6z" fill="#fbfdfc"/>
 <path d="m307 191.9c4.6-4.9 10.2-8.7 15.1-13.2 8.4-12.3 15.5-28.6 9.1-43.4-2.2-9.8-13.6-13.2-22.5-12.1-11.7 2-24.6 6.2-30.8 17.3.2 10.8 1.9 21.6-.3 32.3 11.4 3 23.8 8 29.4 19.1zm8.4-45.5c2.3-.5 4.7-1.1 7-1.8 2.6 4 2.5 9.7 1.1 14.1-4.6 4.5-11.2-.1-13.1-5 1.7-2.5 3.4-4.9 5-7.3z" fill="#fbfdfc"/>
 <path d="m267.8 250.1c.1.1.1.1 0 0z" fill="#231f20"/>
 <path d="m307 191.9c4.6-4.9 10.2-8.7 15.1-13.2 8.4-12.3 15.5-28.6 9.1-43.4-2.2-9.8-13.6-13.2-22.5-12.1-11.7 2-24.6 6.2-30.8 17.3.2 10.8 1.9 21.6-.3 32.3 11.4 3 23.8 8 29.4 19.1zm8.4-45.5c2.3-.5 4.7-1.1 7-1.8 2.6 4 2.5 9.7 1.1 14.1-4.6 4.5-11.2-.1-13.1-5 1.7-2.5 3.4-4.9 5-7.3z" fill="none"/>
 <path d="m115.3 265.3 1.6-3.6c-3.7-4.3-10-2.3-15-3-4.2.3-10.2-.4-13.7 2.3v3.5c9 .2 18.1.4 27.1.8z" fill="none"/>
 <path d="m124.6 228.4c-1.8.5-3.6.9-5.4 1.3-4 7.1-9.4 14.4-8.2 23 5.7 0 11.5-.1 16.6-2.8-4.1-6.5-5.5-14.1-3-21.5z" fill="none"/>
 <path d="m129 258.2c3-4.1 9-3.1 13.5-4.4-3-3.9-7.1-7.4-8.3-12.3-.4-7.3 3.1-14.1 5.6-20.9 1.9.4 3.7.7 5.6 1.1.3 2.6.5 5.2.7 7.9 6.4 3.5 13.8 3.7 20.6 5.9 9.4 3.1 19.5 2 29-.2-.2-2.2-.3-4.4-.3-6.6 1-4 3.2-10.2 8.6-7.9-.5 5.2-1.1 10.3-1.3 15.5.1 4.7 2.5 8.7 5.4 12.3-.1-2.7-.3-5.5-.5-8.2-.8-7.2-.6-14.9 3.5-21.2 1.2-.1 3.7-.3 4.9-.4-1 5-2.3 10-3.4 15 2.4.3 4.9.6 7.3.9 9.8 1.1 19.7-1.4 28.4-6 2.5-1.3 4.9-2.7 7.3-4.1 4.7 2.8 10 5.7 15.7 4 13.7-3.2 29-5.9 39.4-16.3-.8-2.1-1.7-4.2-2.6-6.3l-.6-1.5c-3.4-5.7-6.2-12.3-12.1-16-5.6-3.3-12.1-4.7-17.9-7.5-6.2 5.2-9.1 13.1-15 18.5-6.9 4.6-15.7 5.5-23.7 4-9.1-2.1-16.5-8.1-23.7-13.6-4.4-3.4-6.6-8.6-8.2-13.7-1-3.4-2-6.8-2.9-10.3-1.1-4.4-.8-10.3-5.8-12.4l-.6-.3c-11.3-5.2-23.7-9-36.3-8.3-11 3.4-23.2 5.8-31.8 14.2-13.3 11.7-20.7 28.4-26.6 44.8-.3 1-.8 2.9-1.1 3.9-.2.7-.5 1.9-.7 2.6-2 7.9-5.5 15.4-7.5 23.3-.5 4.5-.2 9 .3 13.4 0 .8.1 2.5.2 3.4 2.7 0 5.4.1 8.1.2 5.6-9.7 9.2-21 18.5-28.1 2.2-2.2 4.1-4.7 6.4-6.9 2.9-1.6 4.8 1.7 6.3 3.5-8.1 9-5.4 22.8.9 32.1-4.2 3.1-8.4 6.4-11.7 10.6 2.3 7.5 9.9 11.1 16.8 13.6-4.9-4.7-12.2-9.3-10.4-17.3z" fill="none"/>
 <path d="m198.5 243.4c-8.7.4-17.4.1-26.1.4-1.1 4.1-2.5 8-3.3 12.2 12.4 1.1 24.9.7 37.3.5-1.9-4.7-3.7-9.9-7.9-13.1z" fill="none"/>
 <path d="m166 318.5c-1.4-1.6-2.5-3.5-3.9-5.1 0 2.4.1 4.7.2 7.1-6 3.7-11.4-2.2-16.2-5.1 2 2.2 4.1 4.3 6.1 6.6 4.9.7 10.4.9 13.8-3.5z" fill="none"/>
 <path d="m121.7 272.8c-.4-.5-1.2-1.4-1.7-1.9-10.6-.4-21.2-2.9-31.8-1.2.3.7 1 2.1 1.4 2.8 10.6 1.1 21.4.3 32.1.3z" fill="none"/>
 <path d="m97.3 276.8c.7 9.1 2.5 18.3 5.6 26.9 6 10.5 11 21.7 18.7 31.2 8 7.9 15.9 17.8 28 18.4 8.9 0 18.8 2 26.7-3.1 10.3-4.8 16.2-17.7 12.2-28.6-3.4-9-5.9-19.7-14.5-25.3-12.2-7.3-30.5 4.8-28 19.1-.6-14.4 21.3-24.4 29.7-11.2 4.9 11.1 11.9 24.1 6.3 36.3-9 13.7-29.7 15.1-42.3 5.8-5.9-4.5-12.2-8.9-16-15.4-3.6-6.2-6.8-12.8-10.5-19-6.5-10.5-6.8-23.3-11.6-34.4-1.1-.2-3.2-.5-4.3-.7z" fill="none"/>
 <path d="m232.4 260.6c-2.4.6-7.6-.2-7 3.9 6.8.4 13.7.4 20.5.2 2.8.1 4-1.3 3.7-4.2-5.7 0-11.5-.3-17.2.1z" fill="none"/>
 <path d="m240.9 245.3c-1.8-1.7-2.5-5.1-5.3-5.4-5.4.7-10.8 1.5-16.3 1.3h-.3-5.7c-.3 3.3-.3 6.6-.3 9.9 1.3.7 4 2.1 5.3 2.9 1.9-3.5 5.5-4.9 9.1-5.9 5.4 8.8 16 7.7 24.9 7.5-3.8-3.5-8.3-6.3-11.4-10.3z" fill="none"/>
 <path d="m220.5 183.6-.2 1.2c8.6 8.6 21.4 13.9 33.4 10.4 4.6-2.5 9.2-5.6 11.4-10.5 7.5-15.5 8.8-33.8 3.7-50.2-4.6-3.3-9-7.1-11.7-12.1-5.5-7.6-14.6-15.6-24.6-12-10.2 1.4-17.4 10.4-20.2 19.8-3.8 12-5.1 25.6.1 37.4 1 5.9 2.1 13.2 8.1 16zm19.2-29.5c2.2 6.5-1.4 15.5-9.4 15.6-3.6-2.5-8.6-4.8-7.8-10-1.4-9.6 11.6-9.3 17.2-5.6z" fill="none"/>
 <path d="m262.6 261.1c-.4.7-1.2 2.2-1.6 3 5.9 1.8 12.2.7 18.2 1.5 7.8 1.1 16.2 2 23.5-1.7-2.5-1.6-4.8-4-7.8-4.6-10.8-.6-21.6.8-32.3 1.8z" fill="none"/>
 <path d="m285.2 269.2c-9.8 1.7-19.8.5-29.6 1.8-10.5-2.1-21.2-2.4-31.9-1.6.1 1 .2 3 .3 4 10.5-.7 21.2.4 31.6-1.8 9.1 2 18.4 1.2 27.6.6 4.7-.5 9 2.4 13.6 1.9.9-6.4-7.6-4.6-11.6-4.9z" fill="none"/>
 <path d="m273.3 283.1c-5.9-2-11.6-4.6-17.3-7.2 3.7 3.6 6.8 8.2 11.5 10.5 6.2 1.4 12.3-2.7 16.7-6.7-2.7-5.5-7.5 2-10.9 3.4z" fill="none"/>
 <path d="m312.1 259c-.3 2.4-.5 4.8-.7 7.2-1 .6-2.9 1.8-3.8 2.5 0 2.2-.2 4.5-.3 6.7 8.3-.2 15.9-3.7 24-5.3 1.3-2.6.5-5.5.5-8.3-6.7-.6-13-3.1-19.7-2.8z" fill="none"/>
 <path d="m251.6 238.3c-1.8-2.1-4.7-2.3-6.4.1 2.2 7.2 10 10.7 13.2 17.4-1.4 3-4.9 6.2-2.5 9.6.9-6.5 6.3-9.8 11.9-11.9-2.9-.2-5.8-.4-8.6-.6-2.3-5-4.3-10.2-7.6-14.6z" fill="none"/>
 <path d="m155.1 264.6c6-1.8 11.7 2.2 17.7 2.2 11.5.3 23 .3 34.5-.2-.1-1.3-.3-4-.4-5.3-15.3 0-31.1-2.3-46 2-4.2-.1-8.1-2-12.2-2.7-2.8-3.8-10.1-1.1-14.7-2.2.7 2.1 1.3 4.3 1.9 6.4 3.7.1 7.5.2 11.2.2 2.4 2.6 5.4-.2 8-.4z" fill="none"/>
 <path d="m141.5 270.7c.9 1.2 1.8 2.5 2.7 3.7 3.6.1 7.3.2 10.9.4 17.3.1 34.5.4 51.8-.2.3-.6.9-1.7 1.3-2.2-17.7-1.2-35.4-1.4-53.1-1.7-4.5.1-9 .1-13.6 0z" fill="none"/>
 <path d="m144.4 253.5c2.8-2.2 5.6-4.4 8.6-6.1.4-2.3 1-4.7 1.5-7-3.7-3.5-9.3-3.4-13.9-4.7-1.2 6.2.2 12.5 3.8 17.8z" fill="none"/>
 <path d="m154.7 254.2c3.2.6 6.4.8 9.7 1.1 3.3-3.8 1.2-9 .9-13.5l-1.7.9c-1.4 5.2-4.6 8.7-8.9 11.5z" fill="none"/>
 <path d="m216.9 264.5c1.6-5.8 7.6-7.5 12.4-9.8-3-7.1-10-1.1-13.2 2.6-2.4-2.1-4.6-4.4-6.6-6.8 6.2 9.1 1.2 23 11.4 29.7-1.5-4.9-3.3-9.8-4.1-14.9z" fill="none"/>
 <path d="m69.8 256.7c-1.1 2.5-2.4 5.1-3.7 7.5 1.1 3.2 2.8 6.2 4.8 8.9.6-.3 1.8-.8 2.3-1-4.3-5-.9-11 1.9-15.8-1.8.3-3.6.4-5.3.4z" fill="#fff"/>
 <path d="m82.3 258.6-.4-1.1c-.2.4-.5 1.2-.6 1.6l-1.1 1.3c-.2.2-.6.7-.7.9-2.6 2.2-2.1 5.6-2.4 8.6.4.7 1.3 2.2 1.7 3 4.5 2.7 3.6-7.2.5-7.4 1.9-2.3 4-4.5 4.6-7.5z" fill="#fff"/>
 <path d="m230.3 169.7c8 0 11.5-9.1 9.4-15.6-5.6-3.7-18.5-4-17.2 5.5-.8 5.2 4.2 7.6 7.8 10.1z" fill="#231f20"/>
 <path d="m323.5 158.6c1.4-4.4 1.5-10.1-1.1-14.1-2.3.7-4.6 1.3-7 1.8-1.7 2.4-3.3 4.8-5 7.2 1.9 5 8.4 9.6 13.1 5.1z" fill="#231f20"/>
 <path d="m319.1 255.3c-10.3-1.8-20.7-.1-31-.3-4.6-3.1-9.1-6.7-14.8-7.1-1.8.8-3.6 1.5-5.4 2.2 4.7.5 9.6 1.6 13.2 5-4.5-.3-9.1-.1-13.3-1.7-5.7 2.1-11.1 5.3-11.9 11.9-2.4-3.4 1.1-6.5 2.5-9.6-3.2-6.7-10.9-10.2-13.2-17.4 1.7-2.4 4.6-2.2 6.4-.1 3.4 4.4 5.3 9.6 7.6 14.6 2.9.2 5.8.4 8.6.6v-3.3c-1.4.6-2.9 1.2-4.3 1.9-2.5-5.5-4.6-11.1-6.4-16.8 3.4.8 6.7 2 10.1 2.7 15.6-2.4 32.3-5.5 44.5-16.3 2.6-2.6 7.2-4.9 6.4-9.2-.3-2.2-1-4.3-2-6.2-1.7-3.6-4.1-6.9-5.6-10.7 3.5-1.3 7.1-2.6 10.5-4.2 12.2-11.9 18.3-28.9 19.6-45.7-1.2-8.9-3.7-18.7-10.6-25-12.6-6.3-27.4-4.3-40.2.3-5.8 2.3-10 7-14.9 10.8-3.9-.9-6.3-5.4-8.9-8.4-5-8.5-11.8-16.3-21.1-20-7.8-.3-16.7-2.4-23.4 2.6-3.4 2.2-7.2 4.2-9.6 7.7-5.4 10.1-8.5 21.3-9.4 32.6-1.7-.7-3.4-1.3-5.1-2-11.9-4.4-24.3-7.4-37-7-8.8 1.7-17.4 4.3-25.6 8-16.7 8.7-27.3 25.7-33.5 43-3.8 7.6-6.5 15.6-8 23.9-1.4 7.5-4.3 14.8-4.7 22.5 0 5.2.4 10.4.3 15.6-.2.1-.5.3-.7.4-5.4 3-11.8 2.9-17.8 3.9-4.5-.1-8.8-2.3-13.3-1h-.1c-4.8 2.3-9.9 3.6-14.7 5.8-1.1 6.8-2.2 16.2 6 18.8h8.8c10.4 0 20.7.1 31.1.2h2.4c2.5 13 5 26.4 11.9 37.9 8.1 13.1 16.1 26.8 28.4 36.4 11.8 7.9 26.7 8.2 40.2 5.8 5.1-.6 8.7-4.6 13.3-6.5 2.8-1.7 7-2.1 8-5.7 9.2-15 2.2-33.5-6.2-47.2-5.3-9.4-16.9-11.3-26.7-10.9-5.8.9-9.4 5.8-14.1 8.8-5.1 3.1-10.1 9.7-6.2 15.7 3.3 6.3 7.4 14.7 15.8 14.2 5.3-.6 12.3-1.8 14.6-7.3 1-6.7-6.9-9.9-12.2-11.1.3 3.3.6 6.5.9 9.8-2.7-1.9-5.5-3.7-8.3-5.6 1.7-8.8 11.5-8.6 18.3-11.3 6.9 10.7 14.1 24.5 8.5 37.3-6.5 8.1-18.2 7.1-27.2 5-11.8-1.8-19.7-12.4-24.9-22.3-7.9-13.7-17.5-28.4-15.8-44.9 5.5-.1 11.1-.5 16.5.1 5.3 1.2 10 5.8 15.7 3.6 12.2-3.3 24.9-1.3 37.4-1.5 9.8-.5 19.7-1 29.5-.4 3.5 1 5.5 5.3 9.6 5 4.7 1.6 7.4-3.3 10.9-5.3 7.9-.3 15.9-.5 23.7 0 3.7 6.5 9.3 13.5 17.3 14.5 9.7.4 18-6.5 23.2-14.1 6.9 1.6 14.3 3.7 21 .3 14.5-6.1 30.5-6.1 45.4-10.4v-4.3c-11.7-7.4-26.5-5.2-40-8.6zm-66.9.3c-8.9.2-19.5 1.3-24.9-7.5-3.6 1-7.2 2.4-9.1 5.9-1.3-.7-4-2.2-5.3-2.9 0-3.3 0-6.6.3-9.9h5.7.3c5.5.3 10.9-.6 16.3-1.3 2.8.3 3.5 3.7 5.3 5.4 3.2 4 7.7 6.8 11.4 10.3zm-6.3 9.1c-6.9.2-13.7.2-20.5-.2-.7-4.1 4.5-3.3 7-3.9 5.8-.4 11.5-.1 17.3-.1.2 2.9-1 4.3-3.8 4.2zm32-124.1c6.2-11.1 19.1-15.3 30.8-17.3 8.9-1.1 20.2 2.3 22.5 12.1 6.4 14.7-.7 31-9.1 43.4-4.9 4.6-10.5 8.3-15.1 13.2-5.6-11.2-18-16.2-29.4-19 2.1-10.8.5-21.7.3-32.4zm-65.6-10.4c2.8-9.4 10-18.4 20.2-19.8 10-3.6 19.2 4.4 24.6 12 2.8 5.1 7.1 8.8 11.7 12.1 5.1 16.4 3.8 34.7-3.7 50.2-2.2 5-6.9 8-11.4 10.5-12.1 3.5-24.8-1.8-33.4-10.4l.2-1.2c-6.1-2.8-7.1-10.2-8.2-16-5.1-11.8-3.8-25.4 0-37.4zm-155.2 144.7c-3.6-.1-7.1-.3-10.7-.9-.6-3.4-2.1-8.4 1.4-10.7 3.6-2 6.1-5.2 8.2-8.7.4.1.7.1 1.1.1 3 .4 6.1.3 9.1-.3-.3 3.9-5.6 5.6-4.9 9.6.9 3.9 3.1 7.4 4.7 11.1-3-.1-5.9-.2-8.9-.2zm16.1-2.7c-.6.3-1.8.8-2.3 1-2-2.8-3.6-5.7-4.8-8.9 1.4-2.4 2.6-5 3.7-7.5 1.7-.1 3.5-.2 5.2-.4-2.7 4.8-6.1 10.7-1.8 15.8zm5.4.6c-.4-.7-1.3-2.2-1.7-3 .3-3-.2-6.4 2.4-8.6.2-.2.5-.6.7-.9l1.1-1.3c.2-.4.5-1.2.6-1.6l.4 1.1 1.4-.6c-.5 3-2.7 5.2-4.6 7.5 3.4.2 4.2 10.1-.3 7.4zm7.3-8.4c.5-1.5 1.3-2.6 2.3-3.4 3.5-2.7 9.5-2 13.7-2.3 5 .7 11.2-1.3 15 3l-1.6 3.6c-9-.4-18.1-.6-27.1-.8-.8 0-1.5 0-2.3-.1zm41.7-14.5c-5.2 2.7-11 2.8-16.6 2.8-1.2-8.6 4.2-15.9 8.2-23 1.8-.4 3.6-.8 5.4-1.3-2.5 7.4-1.1 15 3 21.5zm-14.4 62c3.8 6.2 6.9 12.7 10.5 19 3.8 6.5 10.1 10.9 16 15.4 12.6 9.3 33.4 7.9 42.3-5.8 5.7-12.2-1.4-25.1-6.3-36.3-8.4-13.2-30.3-3.2-29.7 11.2 4.8 2.9 10.2 8.8 16.2 5.1-.1-2.3-.2-4.7-.2-7.1 1.4 1.6 2.5 3.4 3.9 5.1-3.4 4.4-8.9 4.2-13.8 3.5-2-2.2-4.1-4.4-6.1-6.6-2.5-14.3 15.8-26.4 28-19.1 8.7 5.6 11.1 16.2 14.5 25.3 4 10.9-1.9 23.8-12.2 28.6-8 5.1-17.8 3.1-26.7 3.1-12.2-.6-20.1-10.5-28-18.4-7.7-9.4-12.7-20.6-18.7-31.2-3.1-8.6-4.9-17.8-5.6-26.9 1.1.2 3.2.5 4.4.6 4.7 11.2 5 24 11.5 34.5zm-23.6-39.4c-.4-.7-1-2.1-1.4-2.8 10.6-1.7 21.2.8 31.8 1.2.4.5 1.2 1.4 1.7 1.9-10.7 0-21.5.8-32.1-.3zm32.9-10.4c3.3-4.1 7.4-7.4 11.7-10.6-6.2-9.3-9-23.1-.9-32.1-1.6-1.9-3.4-5.2-6.3-3.5-2.3 2.1-4.2 4.6-6.4 6.9-9.3 7.1-12.9 18.4-18.5 28.1-2.7-.1-5.4-.2-8.1-.2 0-.8-.1-2.5-.2-3.4-.5-4.5-.8-8.9-.3-13.4 2-7.9 5.5-15.3 7.5-23.3.2-.6.5-1.9.7-2.6.3-1 .8-2.9 1.1-3.9 6-16.3 13.4-33 26.6-44.8 8.5-8.4 20.7-10.7 31.8-14.2 12.5-.7 25 3.1 36.3 8.3l.6.3c5 2 4.7 7.9 5.8 12.4.9 3.4 1.8 6.9 2.9 10.3 1.7 5.1 3.9 10.3 8.2 13.7 7.2 5.5 14.7 11.5 23.7 13.6 8 1.5 16.8.6 23.7-4 6-5.4 8.8-13.3 15-18.5 5.8 2.9 12.3 4.2 17.9 7.5 5.8 3.7 8.6 10.3 12.1 16l.6 1.5c.9 2.1 1.7 4.2 2.6 6.3-10.4 10.4-25.7 13.1-39.4 16.3-5.7 1.7-11-1.3-15.7-4-2.4 1.3-4.9 2.8-7.3 4.1-8.6 4.6-18.6 7.1-28.4 6-2.4-.3-4.9-.6-7.3-.9 1.1-5 2.4-9.9 3.4-15-1.2.1-3.7.3-4.9.4-4.1 6.3-4.3 13.9-3.5 21.2.2 2.7.4 5.5.5 8.2-2.9-3.6-5.3-7.6-5.4-12.3.2-5.2.9-10.3 1.3-15.5-5.4-2.3-7.6 3.9-8.6 7.9 0 2.2.2 4.4.3 6.6-9.5 2.2-19.6 3.3-29 .2-6.8-2.2-14.2-2.4-20.6-5.9-.2-2.6-.5-5.3-.7-7.9-1.9-.4-3.7-.7-5.6-1.1-2.5 6.7-6 13.5-5.6 20.9 1.3 4.8 5.3 8.4 8.3 12.3-4.4 1.3-10.5.3-13.5 4.4-1.8 8 5.5 12.6 10.2 17.5-6.7-2.7-14.3-6.3-16.6-13.8zm83.9-5.6c-12.4.2-24.9.6-37.3-.5.8-4.1 2.2-8.1 3.3-12.2 8.7-.3 17.4 0 26.1-.4 4.2 3.2 6 8.4 7.9 13.1zm-42-1.2c-3.3-.3-6.5-.5-9.7-1.1 4.3-2.9 7.5-6.4 8.9-11.5l1.7-.9c.3 4.5 2.4 9.7-.9 13.5zm-9.8-15c-.6 2.3-1.1 4.6-1.5 7-3.1 1.7-5.9 4-8.6 6.1-3.6-5.3-5-11.5-3.8-17.8 4.6 1.4 10.2 1.2 13.9 4.7zm-18.6 24.6c-.6-2.1-1.2-4.3-1.9-6.4 4.6 1.1 11.9-1.6 14.7 2.2 4.1.7 8 2.6 12.2 2.7 14.9-4.4 30.7-2 46-2 .1 1.3.3 4 .4 5.3-11.5.4-23 .5-34.5.2-6 0-11.7-4-17.7-2.2-2.6.2-5.6 3-7.9.6-3.9-.2-7.6-.3-11.3-.4zm70.9 9.7c-17.3.6-34.5.3-51.8.2-3.6-.1-7.3-.3-10.9-.4-.9-1.2-1.8-2.5-2.7-3.7 4.5 0 9 .1 13.6 0 17.7.2 35.4.5 53.1 1.7-.4.6-1 1.7-1.3 2.2zm2.6-24.2c2 2.5 4.2 4.7 6.6 6.8 3.2-3.7 10.3-9.6 13.2-2.6-4.8 2.3-10.8 4-12.4 9.8l-.1.7c.7 5.1 2.6 10 4.1 14.9-10.3-6.6-5.2-20.4-11.4-29.6zm58.1 36c-4.8-2.3-7.8-6.9-11.5-10.5 5.7 2.5 11.3 5.2 17.3 7.2 3.4-1.4 8.2-8.9 11-3.4-4.5 4-10.6 8.1-16.8 6.7zm29.2-12.3c-4.6.6-8.9-2.3-13.6-1.9-9.2.6-18.5 1.4-27.6-.6-10.4 2.2-21.1 1.2-31.6 1.8-.1-1-.2-3-.3-4 10.7-.9 21.4-.5 31.9 1.6 9.8-1.3 19.8-.1 29.6-1.8 4 .3 12.5-1.5 11.6 4.9zm-17.6-8.5c-6-.8-12.3.3-18.2-1.5.4-.7 1.2-2.2 1.6-3 10.7-.9 21.4-2.4 32.3-1.8 3 .6 5.3 3 7.8 4.6-7.3 3.6-15.7 2.7-23.5 1.7zm52.1 4.5c-8.1 1.5-15.7 5.1-24 5.3.2-2.2.3-4.5.3-6.7.9-.6 2.8-1.9 3.8-2.5.2-2.4.5-4.8.7-7.2 6.7-.3 13 2.2 19.6 2.9.1 2.6.9 5.6-.4 8.2z" fill="#231f20"/>
 <path d="m160.4 208.5c2.6 2.5 5.1 5.3 8.5 6.7 6.4 2.5 10.9 8.5 17.6 10.6-.6 1-1.2 2.1-1.8 3.1-9.1-2.9-18.8-.7-27.9-3.6 5.1-2.7 5.1-8.4 2.5-12.8.2-1 .8-3 1.1-4z" fill="#97eb74"/>
 <path d="m101.2 235.7c6.3-5.3 5.5-17.1 15.3-18.3 1.4 1.8 2.7 3.6 4 5.4-9.3 7.1-12.9 18.4-18.5 28.1-2.7-.1-5.4-.2-8.1-.2 0-.8-.1-2.5-.2-3.4 3.7-3.2 3.5-8.7 7.5-11.6z" fill="#84cb71"/>
 <path d="m233 221.3c5.3 2.1 10.2 4.9 15.2 7.6-8.6 4.6-18.6 7.1-28.4 6-.5-3.7-.6-7.4-.2-11.1.9-.1 2.7-.3 3.6-.5.9 2.6 1.8 5.2 2.7 7.9 2.5-3.2 4.9-6.5 7.1-9.9z" fill="#6cb960"/>
 <path d="m150.3 224.4c1.6.2 4.8.6 6.5.9 9.1 2.9 18.8.7 27.9 3.6.6-1 1.2-2.1 1.8-3.1 3 1.1 5.9 2 8.9 3 0 2.2.2 4.4.3 6.6-9.5 2.2-19.6 3.3-29 .2l4-2.8c-7.1-1.9-15-2.9-20.4-8.4z" fill="#77c66c"/>
 <path d="m56.1 254.6c3.4.5 6.8.5 10.2-.2-.3 3.9-5.6 5.6-4.9 9.6.9 3.9 3.1 7.4 4.7 11.1-6.5-.3-13.1.1-19.5-1.1-.6-3.4-2.1-8.4 1.4-10.7 3.5-2.1 6-5.2 8.1-8.7z" fill="#d07b84"/>
 <path d="m312.1 259c6.7-.3 13 2.2 19.6 2.9 0 2.7.8 5.7-.5 8.3-8.1 1.5-15.7 5.1-24 5.3.2-2.2.3-4.5.3-6.7.9-.6 2.8-1.9 3.8-2.5.3-2.5.6-4.9.8-7.3z" fill="#fefefe"/>
 <path d="m134.1 258.5c4.6 1.1 11.9-1.6 14.7 2.2l-3.2-.4c.5 1.6 1 3.3 1.6 4.9-3.7 0-7.5-.2-11.2-.2-.6-2.2-1.3-4.4-1.9-6.5m-45.9 11.2c10.6-1.7 21.2.8 31.8 1.2.4.5 1.2 1.4 1.7 1.9-10.7 0-21.5.8-32.1-.3-.4-.7-1.1-2.1-1.4-2.8z" fill="#e1cb86"/>
 <path d="m85.9 264.4c2-6.6 10.6-5.4 16.1-5.7 5 .7 11.2-1.3 15 3l-1.6 3.6c-9.9-.5-19.7-.6-29.5-.9m69.2 6.4c17.7.2 35.4.5 53.1 1.7-.3.6-1 1.7-1.3 2.2-17.3.6-34.5.3-51.8.2z" fill="#ddc377"/>
 <path d="m145.6 260.3 3.2.4c4.1.7 8 2.6 12.2 2.7 14.9-4.4 30.7-2 46-2 .1 1.3.3 4 .4 5.3-11.5.4-23 .5-34.5.2-6 0-11.7-4-17.7-2.2-2.6.2-5.6 3-7.9.6-.7-1.8-1.2-3.4-1.7-5m-4.1 10.4c4.5 0 9 .1 13.6 0v4.1c-3.6-.1-7.3-.3-10.9-.4-.9-1.2-1.8-2.4-2.7-3.7z" fill="#dcc576"/>
 <path d="m225.4 264.5c-.7-4.1 4.5-3.3 7-3.9 5.8-.4 11.5-.1 17.3-.1.3 2.9-.9 4.3-3.7 4.2-6.9.2-13.8.2-20.6-.2m37.2-3.4c10.7-.9 21.4-2.4 32.3-1.8 3 .6 5.3 3 7.8 4.6-7.3 3.6-15.6 2.8-23.5 1.7-6-.8-12.3.3-18.2-1.5.4-.8 1.2-2.3 1.6-3m-38.9 8.4c10.7-.9 21.4-.5 31.9 1.6 9.8-1.3 19.8-.1 29.6-1.8 4.1.3 12.6-1.5 11.6 4.9-4.6.6-8.9-2.3-13.6-1.9-9.2.6-18.5 1.4-27.6-.6-10.4 2.2-21.1 1.2-31.6 1.8-.1-1-.2-3-.3-4z" fill="#f5d776"/>
 <path d="m216.8 265.2c0-.2.1-.5.1-.7z" fill="#959d64"/>
</svg>
