<svg xmlns="http://www.w3.org/2000/svg" id="Layer_1" x="0" y="0" version="1.1" viewBox="0 0 1936 1936" xml:space="preserve">
  <path id="path71" fill="#2D6E35" fill-opacity="1" d="M968 230.5c-50.9 0-92.1992 41.2992-92.1992 92.1992v1290.7012c0 50.9 41.2992 92.1992 92.1992 92.1992h182.5312v-92.1992H968V322.6992h182.5312V230.5H968zm256.5625 0v92.1992h619.2383v1290.7012h-619.2383v92.1992h619.2383c50.9 0 92.1992-41.2992 92.1992-92.1992V322.6992c0-50.9-41.2992-92.1992-92.1992-92.1992h-619.2383z"/>
  <path id="path73" fill="#2D6E35" fill-opacity="1" d="M1014.0996 460.9004v138.2988h136.4316V460.9004h-136.4316zm210.4629 0v138.2988h250.5371v188.5h-118l-24.4004 28.6016L1541.5 1060.0996l210.1992-243.7988-25.8984-28.5h-112.5V507c0-25.5-20.6016-46.0996-46.1016-46.0996h-342.6367zm34.3379 532.7988l-34.3379 33.6641v434.7871l33.8379 33.1504L1514.6992 1244.5l-255.7988-250.8008zm-108.3692 106.2442l-49.7304 48.7558v192.2012l49.7304 48.7207v-289.6777z"/>
  <path id="path75" fill="#2D6E35" fill-opacity="1" d="M1152.4004 0L0 201.9004v1532.1992L1152.4004 1936V0zM583.0977 552.1621c29.9718.225 59.8023 3.9387 88.9023 11.1387 32.3 8.2 62.1996 23.9996 87.0996 46.0996 24.1 21.8 42.4 49.3992 53 80.1992 18.1 56.2 22.5004 115.9012 12.9004 174.2012-3.2 18.1-8.1008 35.9-14.8008 53-6.5 16.2-14.6984 31.5996-24.3984 46.0996-9.9 14.8-21.3016 28.5-34.1016 41-14 13.3-29.4996 24.8996-46.0996 34.5996-15.8 9.8-32.5992 17.8-50.1992 24-18.2 6.4-37.1012 11.0008-56.2012 13.8008-20 2.6-40.1984 3.4988-60.3984 2.7988h-77.9004v279.3008l-138.3008-8.3008V566.5l230.5-13.4004c10-.7 20.0074-1.0125 29.998-.9375zm-47.1309 143.5352A174.4259 174.4259 0 00525.5 696H461v247.5996l3.1992-1H525.5c18.7.4 37.4008-2.2988 55.3008-7.7988 30.8-9.4 54.9-33.4016 64.5-64.1016 5.6-17.4 8.3988-35.5984 8.2988-53.8984.3-18.7-2.4988-37.2004-8.2988-54.9004-4.8-14.6-13.2004-27.8008-24.4004-38.3008-11.4-10.4-25.1996-17.9996-40.0996-22.0996-14.625-3.8188-29.7139-5.7881-44.834-5.8027z"/>
</svg>
