<svg xmlns="http://www.w3.org/2000/svg" stroke-linejoin="round" stroke-miterlimit="1.4142" clip-rule="evenodd" viewBox="0 0 24 24">
  <path fill="#fbc02d" d="M19 20H4c-1.11 0-2-.9-2-2V6c0-1.11.89-2 2-2h6l2 2h7c1.097 0 2 .903 2 2H4v10l2.14-8h17.07l-2.28 8.5c-.23.87-1.01 1.5-1.93 1.5z"/>
  <path fill="#fff9c4" stroke-width=".5759" d="M23.724 18.322l-4.2044 2.3326c-.288.1497-.576.1497-.864 0L14.509 18.322l7.516-7.5737.2017-.0576c.1727 0 .2706.0749.288.2304l1.2094 7.4009m-6.1338-7.4585l-2.6205 4.3484 1.0943-6.8825c.0173-.1555.1152-.2304.288-.2304.1152 0 .19.0346.2304.144l1.2383 2.275-.2304.3456m2.5918.7257l-5.5003 5.5233 4.1756-7.0841c.0576-.1152.144-.167.2592-.167s.19.0518.2304.167z"/>
</svg>
