<svg xmlns="http://www.w3.org/2000/svg" aria-hidden="true" viewBox="0 0 14 14">
  <path fill="#E08B29" d="M1 1v12h12V1H1zm6.3293 9.0415l-.5095-1.595h-1.787l-.4845 1.595h-1.06l1.8035-5.6283h1.311l1.8287 5.6283H7.3293zm2.673 0H8.9665V5.9748h1.0357v4.0667zm-.5263-4.651c-.3425 0-.5677-.2422-.5677-.5513 0-.3175.234-.5595.5762-.5595.3508 0 .5677.242.5763.5595-.0003.309-.2256.5513-.5848.5513zm-3.558-.1588h-.0167c-.0835.3258-.167.7183-.2673 1.0523L5.2 7.67h1.4445L6.202 6.284c-.1085-.3425-.2005-.7268-.284-1.0522z"/>
</svg>
