<svg role="img" focusable="false" aria-hidden="true" xmlns="http://www.w3.org/2000/svg" viewBox="0 0 14 14"><path d="M 1,1 1,13 13,13 13,1 1,1 Z m 6.32925,9.0415 -0.5095,-1.595 -1.787,0 -0.4845,1.595 -1.06,0 1.8035,-5.62825 1.311,0 1.82875,5.62825 -1.10225,0 z m 2.673,0 -1.03575,0 0,-4.06675 1.03575,0 0,4.06675 z M 9.476,5.3905 c -0.3425,0 -0.56775,-0.24225 -0.56775,-0.55125 0,-0.3175 0.234,-0.5595 0.57625,-0.5595 0.35075,0 0.56775,0.242 0.57625,0.5595 C 10.0605,5.14825 9.83525,5.3905 9.476,5.3905 Z m -3.558,-0.15875 -0.01675,0 C 5.81775,5.5575 5.73425,5.95 5.634,6.284 L 5.2,7.67 6.6445,7.67 6.202,6.284 C 6.0935,5.9415 6.0015,5.55725 5.918,5.23175 Z" fill="#E08B29"/></svg>