<svg version="1.1" viewBox="0 0 24 24" xmlns="http://www.w3.org/2000/svg"><path d="m21.783 4.0386c.48763 0 .79614.39807.66676.8857l-3.1447 14.151c-.10947.48763-.58715.8857-1.0748.8857h-16.012c-.48763 0-.79614-.39807-.66676-.8857l3.1447-14.151c.10947-.48763.58715-.8857 1.0748-.8857h16.012m-5.971 11.942h-3.9807c-.45778 0-.82599.37816-.82599.83594 0 .46773.36821.8459.82599.8459h3.9807c.46773 0 .8459-.37816.8459-.8459 0-.45778-.37816-.83594-.8459-.83594m-10.001.27865c-.39807.27865-.48763.82599-.20899 1.2141.27865.41797.83594.49759 1.234.22889 7.3145-5.145 7.3643-5.2047 7.414-5.2346.17913-.15923.2687-.37816.27865-.5971.01-.19904-.03981-.36821-.15923-.5573l-4.8962-5.2545c-.32841-.35826-.8857-.37816-1.244-.029855-.35826.31845-.37816.87575-.049758 1.234l4.13 4.4186z" style="fill:#03a9f4;stroke-width:.99517"/></svg>
